<svg xmlns="http://www.w3.org/2000/svg" version="1" viewBox="0 0 100 125"><font horiz-adv-x="1000"><font-face font-family="Ubuntu-Bold" underline-position="-123" underline-thickness="120"/><glyph horiz-adv-x="240"/><glyph horiz-adv-x="240"/><glyph unicode="!" horiz-adv-x="286" d="M223 514c0-54-2-104-6-151s-9-94-16-142H87c-7 48-12 95-16 142-5 47-7 97-7 151v179h159m13-614c0-29-9-52-28-68s-41-24-65-24-45 8-64 24-29 39-29 68 10 52 29 68 40 24 64 24 46-8 65-24 28-39 28-68z"/><glyph unicode="&amp;quot;" horiz-adv-x="465" d="M197 760v-74c0-32-2-67-7-105s-11-76-17-115H74c-7 39-13 77-17 115-5 38-7 73-7 106v73m365 0v-74c0-32-2-67-7-105s-11-76-17-115h-99c-7 39-13 77-17 115-5 38-7 73-7 106v73z"/><glyph unicode="#" horiz-adv-x="699" d="M325 523h116l33 170h130l-33-170h73V408h-95l-24-123h119V170H503L471 0H341l32 170H257L225 0H95l32 170H55v115h94l24 123H55v115h140l33 170h130m-79-408h116l24 123H303z"/><glyph unicode="$" horiz-adv-x="568" d="M221 10c-49 4-88 12-118 23-31 11-53 20-68 27l43 115c23-11 51-22 84-31 32-9 66-14 102-14 41 0 69 6 84 17s22 26 22 46c0 13-3 24-9 33s-15 17-26 24-26 15-43 22-37 14-60 22c-22 8-43 17-64 27-21 9-40 21-57 35s-31 31-41 52c-11 20-16 44-16 73 0 22 3 43 10 64 6 20 16 38 29 55s31 31 52 43c21 11 47 20 76 25v108h126V672c35-3 65-8 90-15s44-13 59-20l-31-120c-22 9-47 17-76 24s-60 10-92 10-55-5-69-16-21-25-21-42c0-11 2-20 7-27 4-8 11-15 20-21s21-12 35-17c13-6 30-12 49-19 29-11 57-22 82-35s46-27 65-43c18-17 32-36 43-58 10-22 15-48 15-77 0-20-3-40-9-59-6-20-16-38-30-55s-32-31-54-43c-23-12-50-21-83-26v-122H221z"/><glyph unicode="%" horiz-adv-x="918" d="M389 515c0-63-16-111-48-144s-75-50-129-50-97 17-129 50-48 81-48 144 16 111 48 144 75 50 129 50 97-17 129-50 48-81 48-144m-113 0c0 34-6 59-18 74s-27 23-46 23-35-8-46-23c-12-15-18-40-18-74s6-59 18-74c11-16 27-24 46-24s34 8 46 24c12 15 18 40 18 74m308 178h139L332 0H193m690 178c0-63-16-111-48-144s-75-50-129-50-97 17-129 50-48 81-48 144 16 111 48 144 75 50 129 50 97-17 129-50 48-81 48-144m-113 0c0 34-6 59-18 74s-27 23-46 23-35-8-46-23c-12-15-18-40-18-74s6-59 18-74c11-16 27-24 46-24s34 8 46 24c12 15 18 40 18 74z"/><glyph unicode="&amp;" horiz-adv-x="705" d="M35 184c0 25 4 49 11 70s17 40 30 57c12 17 26 32 43 45 16 13 33 24 51 34-16 19-30 40-43 63-13 22-19 46-19 73 0 59 18 104 53 136 35 31 84 47 146 47 31 0 59-4 82-12 23-9 43-20 59-34 15-15 27-31 35-50s12-40 12-62c0-41-11-77-34-108-23-32-53-59-88-80l112-112c6 13 12 30 18 51 5 20 9 38 10 53l124-16c-1-13-4-26-7-41s-7-31-12-46-11-31-17-46c-7-15-14-29-21-42 21-24 42-50 63-78 20-29 37-57 52-86H542c-5 9-13 20-22 33s-19 24-28 33c-27-21-58-39-93-53C364-2 324-9 280-9c-47 0-86 6-117 18-31 11-56 26-75 45-19 18-33 39-41 62s-12 45-12 68m139 15c0-10 2-20 6-31s11-20 20-29 20-17 34-22c14-6 31-9 51-9 28 0 53 4 74 11s38 17 52 29L251 309c-9-5-18-10-27-17s-18-14-25-23-13-20-18-31-7-24-7-39m194 345c0 15-5 29-15 41s-27 18-50 18c-21 0-38-6-49-19-12-13-18-30-18-51 0-17 5-34 15-50 10-17 23-32 39-47 21 12 40 26 55 43s23 38 23 65z"/><glyph unicode="'" horiz-adv-x="247" d="M197 760v-74c0-32-2-67-7-105s-11-76-17-115H74c-7 39-13 77-17 115-5 38-7 73-7 106v73z"/><glyph unicode="(" horiz-adv-x="356" d="M217 299c0-79 12-154 37-225s57-135 97-192l-104-67C190-119 147-45 116 37S70 206 70 299s15 180 46 262 74 156 131 222l104-67c-40-57-72-121-97-192s-37-146-37-225z"/><glyph unicode=")" horiz-adv-x="356" d="M139 299c0 79-12 154-37 225S45 659 5 716l104 67c57-66 100-140 131-222s46-169 46-262-15-180-46-262-74-156-131-222L5-118C45-61 77 3 102 74s37 146 37 225z"/><glyph unicode="*" horiz-adv-x="502" d="M283 536c7 6 15 13 25 20s20 14 31 21c10 7 20 13 31 19 11 5 20 9 28 12l24 8 40-124-24-8c-9-3-19-5-30-6s-23-2-36-2c-13-1-25-1-37-1h-32c8-5 17-11 27-18 9-7 19-15 29-22l27-24c9-8 16-16 21-23l16-21-106-75-15 20c-5 7-10 15-15 26s-10 22-15 34c-5 11-9 23-12 34s-6 22-9 31c-3-9-6-20-9-31s-7-23-12-34c-5-12-9-23-14-34s-11-19-16-26l-15-20-106 75 16 21c5 7 12 15 21 23s18 16 28 24c9 7 19 15 29 22 9 7 18 13 26 18h-32c-12 0-24 0-37 1-13 0-25 1-36 2s-21 3-30 6l-24 8 40 124 24-8c8-3 17-7 28-12 11-6 21-12 32-19l30-21c9-7 18-14 25-20-3 9-7 19-10 31-4 11-8 23-11 35s-6 24-8 36c-3 11-4 21-4 30v25h130v-25c0-9-1-19-3-30l-9-36c-3-12-7-24-10-35-4-12-8-22-11-31z"/><glyph unicode="+" horiz-adv-x="568" d="M49 361h167v185h136V361h167V236H352V51H216v185H49z"/><glyph unicode="," horiz-adv-x="246" d="M211 152c1-16 2-27 3-34v-17c0-20-2-41-5-63-4-23-9-45-16-68s-15-45-25-68-21-44-34-65L17-134C32-90 43-49 49-10s9 71 9 96v16c-1 6-1 12-1 19-1 7-1 13-1 19-1 6-1 10-1 12z"/><glyph unicode="-" horiz-adv-x="340" d="M25 366h290V231H25z"/><glyph unicode="." horiz-adv-x="246" d="M216 79c0-30-9-53-28-68-19-16-41-24-65-24S78-5 59 11C40 26 30 49 30 79s10 53 29 69c19 15 40 23 64 23s46-8 65-23c19-16 28-39 28-69z"/><glyph unicode="/" horiz-adv-x="437" d="M128-185H-25l336 968h151z"/><glyph unicode="0" horiz-adv-x="568" d="M534 348c0-117-22-206-66-268-45-63-106-94-184-94S145 17 101 80c-45 62-67 151-67 268 0 58 6 109 18 154 11 45 28 82 50 113s48 54 79 70 65 24 103 24c78 0 139-31 184-93 44-63 66-152 66-268m-152 0c0 35-2 66-5 95-3 28-9 52-16 73s-17 37-30 48-28 17-47 17-34-6-46-17c-13-11-23-27-30-48-8-21-14-45-17-73-3-29-5-60-5-95s2-66 5-95 9-53 17-74c7-21 17-37 30-48 12-11 27-17 46-17s34 6 47 17 23 27 30 48 13 45 16 74 5 60 5 95z"/><glyph unicode="1" horiz-adv-x="568" d="M70 549c19 8 40 17 61 28 21 10 41 21 61 34 20 12 39 25 58 39 18 13 34 28 49 43h104V0H254v499c-20-13-42-25-67-36s-49-21-72-29z"/><glyph unicode="2" horiz-adv-x="568" d="M496 511c0-25-5-50-15-73s-23-46-39-67c-16-22-34-43-54-63s-40-39-59-57c-10-9-21-20-32-31-12-12-23-24-34-36s-20-23-28-33c-9-11-14-19-16-26h298V0H55c-1 7-2 17-2 28v24c0 32 5 61 16 88 10 27 23 52 40 75s36 44 57 64 41 40 62 60c16 15 31 30 45 44 14 13 26 27 37 40s19 26 25 39 9 26 9 39c0 29-8 50-25 62s-37 18-62 18c-18 0-35-3-50-8-16-6-30-13-43-20-13-8-25-16-34-23-9-8-16-14-21-19L35 615c29 27 64 50 103 68 39 17 80 26 125 26 41 0 76-5 105-14s54-22 73-39 33-38 42-62c9-25 13-52 13-83z"/><glyph unicode="3" horiz-adv-x="568" d="M228-15c-18 0-37 1-57 4-20 2-39 5-58 9S77 6 62 11s-27 9-36 13l29 124c17-7 40-15 67-23 27-9 60-13 100-13 46 0 80 9 101 26s32 41 32 70c0 18-4 33-11 46-8 12-19 22-32 30-13 7-29 13-47 16-19 3-38 4-59 4h-58v120h66c15 0 29 1 43 4 13 3 25 7 36 14 11 6 19 15 26 26 6 11 9 24 9 41 0 13-3 24-8 33s-12 17-20 23c-9 6-18 11-29 14s-23 4-34 4c-29 0-55-4-79-13-25-9-47-19-67-32L38 647c11 7 23 14 38 21 14 7 30 14 47 20s36 11 56 15c19 4 40 6 62 6 41 0 76-5 106-14 29-10 54-24 73-41 19-18 34-39 43-62 9-24 14-50 14-78 0-27-8-54-23-79-15-26-36-46-62-59 36-15 64-36 84-65 19-29 29-64 29-105 0-32-5-61-16-88s-27-51-50-70c-23-20-51-35-86-46s-77-17-125-17z"/><glyph unicode="4" horiz-adv-x="568" d="M319 511c-26-34-54-71-83-111s-54-81-74-123h157m146 416V277h74V155h-74V0H319v155H20v109c15 29 33 63 55 100s47 75 74 114 55 77 85 114 60 71 90 101z"/><glyph unicode="5" horiz-adv-x="568" d="M360 204c0 19-4 37-13 52s-24 27-45 37-50 18-86 23-81 8-136 8c7 62 13 125 18 189s8 124 11 180h375V568H234c-1-24-3-47-4-69-2-23-4-42-6-59 97-7 169-29 216-68 46-39 69-94 69-163 0-32-6-62-17-89s-28-51-51-71-51-36-85-47c-35-11-75-17-121-17-18 0-37 1-56 4-20 2-39 5-57 9-19 3-35 7-50 11s-26 8-34 12l27 123c17-7 39-14 66-21s60-11 98-11c46 0 79 9 100 28 21 18 31 39 31 64z"/><glyph unicode="6" horiz-adv-x="568" d="M274 326c-15 0-30-1-47-4s-30-6-39-11v-12c-1-5-1-10-1-14 0-24 2-47 5-68s9-40 17-56 19-28 32-37 30-14 50-14c17 0 31 4 43 11 11 7 21 15 29 26 7 11 13 23 17 36 3 13 5 25 5 37 0 34-8 60-25 79-17 18-46 27-86 27m19 116c43 0 80-6 111-17 30-12 55-28 74-48s33-43 42-70 13-55 13-85c0-27-5-54-14-82-10-28-25-53-44-76-20-23-45-41-75-56-31-15-67-22-108-22-83 0-147 26-190 79S37 190 37 283c0 67 10 126 31 177s50 95 89 130c38 35 84 61 139 80 54 18 115 27 183 28 1-21 3-41 4-60 1-20 3-41 4-62-34-1-66-4-95-9-30-6-57-15-81-27-25-12-46-27-64-46s-32-43-42-70c15 7 30 11 45 14s30 4 43 4z"/><glyph unicode="7" horiz-adv-x="568" d="M142 0c4 49 12 99 25 152s28 104 47 155c18 51 38 99 61 144s46 83 69 116H43v127h485V586c-21-23-45-56-70-97-26-41-50-88-73-140-23-53-43-109-60-169S297 60 293 0z"/><glyph unicode="8" horiz-adv-x="568" d="M530 193c0-30-5-57-15-82-11-25-26-47-47-66s-46-33-77-43c-31-11-67-16-108-16-47 0-85 7-116 20s-56 29-75 48-33 41-41 64-12 44-12 63c0 20 3 38 8 55s13 32 22 46c9 13 20 26 32 37 11 11 24 22 37 32-29 23-50 46-63 69-14 23-21 52-21 87 0 27 6 52 17 77s26 46 46 65c20 18 44 33 73 44 28 11 59 16 94 16 41 0 76-6 105-17 29-12 52-27 71-45s32-38 41-60c8-23 12-45 12-67 0-32-8-62-25-89-17-28-39-50-64-66 38-25 65-50 82-77 16-27 24-59 24-95m-346-6c0-8 2-17 6-26 3-10 9-19 17-27s18-15 31-20 28-8 46-8c35 0 60 8 76 25s24 35 24 56c0 15-3 29-10 41s-17 23-29 32-26 17-42 24c-17 7-34 13-53 19-19-14-34-30-47-49s-19-41-19-67m185 329c0 7-1 15-4 24-3 8-8 16-15 23s-16 14-27 19-24 7-39 7-27-2-38-7-19-11-26-18c-7-8-13-16-16-25s-5-17-5-25c0-21 8-41 24-60 15-19 42-35 80-48 21 13 38 29 49 46s17 39 17 64z"/><glyph unicode="9" horiz-adv-x="568" d="M289 372c15 0 31 2 48 5s29 7 37 12v9c0 3 0 5 1 8v7c-1 24-3 47-6 68s-9 39-17 55c-8 15-19 28-32 37-14 9-31 13-51 13-16 0-30-3-42-10s-22-15-29-26-13-22-16-35c-4-13-6-25-6-37 0-36 9-63 27-80 17-17 46-26 86-26m73-97c-14-7-29-11-46-14s-32-5-44-5c-43 0-80 5-111 16-31 10-56 25-75 44-20 19-35 41-44 68s-14 56-14 88c0 27 5 54 14 82s23 54 42 77 44 42 74 57c29 15 65 22 107 22 86 0 151-26 195-79 43-53 65-130 65-229 0-65-8-123-25-173s-44-92-79-126c-36-34-82-60-137-77C229 8 163-1 87-2c-1 21-2 42-3 62s-3 41-4 62c38 1 72 4 103 9s58 13 81 25c23 11 43 27 60 46 16 19 29 44 38 73z"/><glyph unicode=":" horiz-adv-x="246" d="M216 434c0-30-9-53-28-68-19-16-41-24-65-24s-45 8-64 24c-19 15-29 38-29 68s10 53 29 69c19 15 40 23 64 23s46-8 65-23c19-16 28-39 28-69m0-355c0-30-9-53-28-68-19-16-41-24-65-24S78-5 59 11C40 26 30 49 30 79s10 53 29 69c19 15 40 23 64 23s46-8 65-23c19-16 28-39 28-69z"/><glyph unicode=";" horiz-adv-x="246" d="M216 434c0-30-9-53-28-68-19-16-41-24-65-24s-45 8-64 24c-19 15-29 38-29 68s10 53 29 69c19 15 40 23 64 23s46-8 65-23c19-16 28-39 28-69m-5-282c1-16 2-27 3-34v-17c0-20-2-41-5-63-4-23-9-45-16-68s-15-45-25-68-21-44-34-65L17-134C32-90 43-49 49-10s9 71 9 96v16c-1 6-1 12-1 19-1 7-1 13-1 19-1 6-1 10-1 12z"/><glyph unicode="&amp;lt;" horiz-adv-x="568" d="M50 361l430 181 39-121-314-122 314-122-39-121L50 237z"/><glyph unicode="=" horiz-adv-x="568" d="M49 251h470V126H49m0 344h470V345H49z"/><glyph>&amp;quot; horiz-adv-x=&amp;quot;568&amp;quot; d=&amp;quot;M518,237l-430,-181l-39,121l314,122l-314,122l39,121l430,-181z&amp;quot;/&amp;gt;<glyph unicode="B" horiz-adv-x="672" d="M311-9c-38 0-76 1-113 4-38 2-77 7-118 16v672c32 6 67 11 105 14s73 4 106 4c44 0 85-3 122-9 37-7 68-18 95-33s48-35 63-60 22-56 22-93c0-55-27-99-80-131 44-17 74-39 90-68s24-61 24-97c0-73-26-127-79-164S416-9 311-9m-79 311V123c11-1 24-2 37-3s28-1 44-1c47 0 84 7 113 20s43 38 43 74c0 32-12 55-36 69-24 13-58 20-103 20m-98 119h76c48 0 82 6 103 19 21 12 31 32 31 59 0 28-11 48-32 59s-53 17-94 17h-43c-15-1-29-2-41-3z"/><glyph unicode="F" horiz-adv-x="574" d="M80 0v693h464V562H236V417h274V286H236V0z"/><glyph unicode="J" horiz-adv-x="529" d="M459 233c0-34-4-66-11-96-8-30-21-56-40-78-19-23-45-40-77-53-33-13-74-20-123-20-45 0-84 6-117 17S31 26 10 41l52 121c19-11 40-21 62-30s46-13 72-13c38 0 65 9 82 28s25 50 25 94v452h156z"/><glyph unicode="N" horiz-adv-x="756" d="M545 0c-45 79-93 158-145 235S293 385 234 454V0H80v693h127c22-22 46-49 73-81s54-66 82-102c27-37 55-74 82-113s53-77 77-113v409h155V0z"/><glyph unicode="R" horiz-adv-x="667" d="M283 701c104 0 184-18 239-55s83-95 83-173c0-49-11-88-33-118-23-31-55-55-97-72 14-17 29-37 44-59 15-23 31-46 46-70 15-25 29-50 43-76 14-27 27-53 39-78H472c-13 23-25 46-38 69s-27 46-40 68c-14 22-28 43-41 63-13 19-27 37-40 53h-77V0H80v683c34 7 69 11 106 14 36 3 68 4 97 4m9-133c-11 0-21 0-30-1s-18-1-26-2V377h44c59 0 101 7 126 22s38 40 38 75c0 34-13 58-38 73-26 14-64 21-114 21z"/><glyph unicode="V" horiz-adv-x="722" d="M286 0c-27 58-54 118-81 181s-52 125-76 186-46 120-66 176c-21 56-38 106-53 150h172c13-40 28-83 44-129 15-47 31-93 48-139 16-46 32-90 47-132s30-78 43-109c13 31 27 67 43 109 15 42 31 86 48 132 16 46 32 92 48 139 15 46 30 89 43 129h166c-15-44-33-94-53-150s-42-115-66-176-49-123-76-186S463 58 436 0z"/><glyph unicode="Z" horiz-adv-x="610" d="M569 585c-21-22-47-50-76-85s-60-74-91-115-62-84-93-128-58-86-82-126h353V0H35v93c19 34 42 72 69 114 27 41 55 83 84 126 29 42 59 83 90 123 30 39 58 75 84 106H51v131h518z"/><glyph unicode="^" horiz-adv-x="568" d="M550 350l-125-61-141 245-141-245-125 61 207 347h118z"/><glyph unicode="b" horiz-adv-x="604" d="M407 267c0 96-35 144-106 144-15 0-30-2-45-6s-28-9-37-15V119c7-1 17-2 28-3s24-2 37-2c41 0 71 14 92 42s31 65 31 111m152-4c0-42-6-80-18-114-13-34-31-63-54-87s-52-42-86-55-73-20-116-20c-18 0-37 1-56 3-20 1-39 3-58 6s-38 6-55 10c-17 3-33 7-46 11v735l149 24V514c17 7 34 13 52 17s37 6 58 6c37 0 70-6 99-19s53-32 72-56 34-53 44-86c10-34 15-72 15-113z"/><glyph unicode="f" horiz-adv-x="422" d="M298 776c28 0 54-3 77-8 23-6 41-12 54-17l-29-119c-13 6-28 11-43 14-16 3-31 4-44 4-18 0-33-2-45-7-13-5-22-12-29-21s-12-19-15-31-5-25-5-39v-26h184V402H219V0H70v554c0 68 19 122 58 162 38 40 95 60 170 60z"/><glyph unicode="j" horiz-adv-x="289" d="M21-185c-9 0-23 1-41 3-19 2-36 6-52 11l20 121c10-3 19-6 28-7 8-1 18-2 31-2 23 0 40 7 49 21S70-4 70 23v503h149V19c0-69-17-121-51-154s-83-50-147-50m212 863c0-27-9-49-26-64-18-16-39-24-63-24s-45 8-62 24c-18 15-27 37-27 64s9 49 27 65c17 15 38 23 62 23s45-8 63-23c17-16 26-38 26-65z"/><glyph unicode="n" horiz-adv-x="589" d="M70 508c25 7 58 14 98 21 40 6 82 9 126 9 45 0 82-6 112-17 29-12 53-29 70-50s30-47 37-76 11-62 11-98V0H375v279c0 48-6 82-19 102s-36 30-71 30c-11 0-22 0-34-1s-23-3-32-4V0H70z"/><glyph unicode="r" horiz-adv-x="422" d="M387 394c-13 3-29 7-47 11-18 3-37 5-58 5-9 0-20-1-33-2-13-2-23-4-30-6V0H70v498c27 9 58 18 95 27 36 8 76 12 121 12 8 0 18 0 29-1s23-3 34-4c11-2 23-4 34-6 11-3 21-6 29-9z"/><glyph unicode="v" horiz-adv-x="550" d="M213 0c-34 67-68 145-103 234S41 421 10 526h158c7-26 15-54 24-84 9-31 18-61 28-92 9-31 19-62 29-91 9-29 19-56 28-80 9 24 18 51 28 80s20 60 30 91c9 31 19 61 28 92 9 30 16 58 23 84h154c-31-105-64-203-99-292S371 67 337 0z"/><glyph unicode="z" horiz-adv-x="500" d="M465 426c-12-13-28-31-48-54-21-23-43-48-66-75s-47-56-70-86c-24-30-46-59-65-87h254V0H35v88c14 24 31 50 51 78 19 27 40 55 62 83 21 28 43 55 64 82 21 26 41 50 59 71H47v124h418z"/><glyph unicode="~" horiz-adv-x="568" d="M386 196c-20 0-39 4-56 12-18 8-35 17-51 26-17 9-32 18-47 26s-30 12-45 12c-5 0-11-1-16-2-6-1-12-4-17-9s-10-13-15-22c-5-10-10-23-14-40L23 227c3 19 9 38 16 59s17 40 30 57c12 17 27 32 46 43s41 17 67 17c20 0 39-4 57-12 17-8 34-17 51-26 16-9 32-18 47-26s29-12 44-12c5 0 11 1 17 2 5 1 11 5 16 10s11 12 16 22c5 9 9 22 13 39l102-28c-3-19-9-38-16-59s-17-40-30-57-28-32-46-43c-19-11-41-17-67-17z"/><glyph unicode="„" horiz-adv-x="454" d="M410 154c1-9 2-19 3-29s1-17 1-22c0-45-8-87-24-127-16-41-36-75-59-103l-101 23c13 29 23 61 31 98 7 36 11 70 11 103v24c-1 5-1 11-1 17-1 6-1 11-2 16m-74 0c1-9 2-19 3-29s1-17 1-22c0-45-8-87-24-127-16-41-36-75-59-103L15-104C28-75 38-43 46-6c7 36 11 70 11 103v24c-1 5-1 11-1 17-1 6-1 11-2 16z"/><glyph unicode="ˆ" horiz-adv-x="398" d="M354 645l-55-66-100 77-100-77-57 66 157 137z"/><glyph unicode="Œ" horiz-adv-x="997" d="M546 0c-15-2-32-3-51-4s-37-2-52-2c-59 0-112 7-160 21-49 14-90 36-124 65-35 29-61 65-80 110-19 44-29 96-29 157s10 113 29 157 45 81 80 110c34 29 75 50 124 64 48 14 101 21 160 21 15 0 33 0 52-1s36-3 51-5h393V562H644V426h260V298H644V131h318V0M441 126h23c7 0 16 0 29 1v439c-13 1-23 1-29 1h-23c-78 0-136-19-174-56-38-38-57-93-57-164s19-126 57-164 96-57 174-57z"/><glyph unicode="”" horiz-adv-x="454" d="M410 767c1-9 2-19 3-29s1-17 1-22c0-45-8-87-24-127-16-41-36-75-59-103l-101 23c13 29 23 61 31 98 7 36 11 70 11 103v24c-1 5-1 11-1 17-1 6-1 11-2 16m-74 0c1-9 2-19 3-29s1-17 1-22c0-45-8-87-24-127-16-41-36-75-59-103L15 509c13 29 23 61 31 98 7 36 11 70 11 103v24c-1 5-1 11-1 17-1 6-1 11-2 16z"/><glyph unicode="˜" horiz-adv-x="373" d="M374 709c-4-10-9-21-16-33s-16-23-26-33c-10-11-21-19-34-26s-27-10-42-10c-12 0-23 2-33 6-11 3-21 7-31 12l-30 12c-10 3-20 5-31 5-13 0-24-4-33-13s-16-19-21-30L4 647c4 10 10 21 17 33s15 23 25 34c10 10 21 18 34 25s27 10 42 10c12 0 23-2 34-5l30-12c10-5 20-9 30-12 9-4 20-6 31-6 13 0 24 4 33 13s16 19 21 30z"/><glyph unicode="œ" horiz-adv-x="937" d="M676-14c-43 0-81 7-115 21-35 13-64 34-87 62-22-27-48-47-78-61-30-15-62-22-96-22-39 0-74 7-105 20s-58 32-80 57c-23 24-40 53-52 88-12 34-18 72-18 113s6 79 19 113c12 34 29 63 52 87s50 43 81 56 66 20 103 20c77 0 138-29 181-86 24 32 51 54 80 67s59 19 89 19c75 0 134-23 177-68s65-113 65-202c0-9 0-18-1-28-1-11-1-20-2-28H551c3-31 18-55 43-73s59-27 102-27c28 0 55 3 81 8s47 11 64 18l20-121c-8-4-19-8-32-12s-28-7-44-10c-17-3-34-6-53-8s-37-3-56-3M410 264c0 46-9 82-27 109-19 26-45 39-79 39s-60-13-79-39c-19-27-28-63-28-109s9-82 28-109 45-41 79-41 60 14 79 41c18 27 27 63 27 109m338 52c-1 13-3 25-6 37-4 12-10 23-17 32-8 9-18 17-30 23s-26 9-43 9-32-3-43-8c-12-6-22-14-30-23s-14-20-18-32c-5-13-8-25-10-38z"/><glyph unicode="¢" horiz-adv-x="568" d="M224 37c-61 17-106 48-135 94S45 231 45 293c0 29 4 58 12 85s20 51 36 73c15 22 34 41 56 58 22 16 47 28 75 37v146h142V557c17-3 34-6 50-10 15-4 31-9 46-16l-33-119c-14 5-29 10-45 14-17 4-35 6-56 6-42 0-74-12-97-37s-34-59-34-102c0-45 11-80 32-103 21-24 56-36 105-36 18 0 37 2 58 5s40 9 57 16l21-122c-13-5-29-10-46-14-17-5-37-8-58-11v-137H224z"/><glyph unicode="¦" horiz-adv-x="302" d="M80 212h142v-397H80m0 968h142V386H80z"/><glyph unicode="ª" horiz-adv-x="399" d="M200 393c11 0 21 0 31 1 9 1 17 1 23 2v78c-5 1-11 3-20 4s-17 1-24 1c-20 0-37-3-52-8s-22-17-22-34 6-29 18-35c11-6 27-9 46-9m-9 315c32 0 59-3 81-10 21-7 39-18 52-31s23-29 29-48c5-19 8-40 8-64V328c-15-3-37-7-66-12s-63-8-102-8c-53 0-94 9-124 28s-45 51-45 98c0 23 5 42 14 57s21 27 36 36 32 16 53 20c20 4 41 6 63 6 13 0 26-1 37-2s20-3 27-4v10c0 19-6 33-17 44-11 10-31 15-58 15-19 0-37-1-56-4s-35-6-48-11l-15 89c13 4 32 8 57 12s49 6 74 6z"/><glyph unicode="®" horiz-adv-x="796" d="M746 347c0-57-9-108-28-153s-45-82-77-113-69-55-111-71c-42-17-86-25-132-25s-90 8-132 25c-42 16-79 40-111 71s-57 68-76 113-29 96-29 153 10 108 29 153 44 83 76 114 69 54 111 71c42 16 86 24 132 24s90-8 132-24c42-17 79-40 111-71s58-69 77-114 28-96 28-153m-102 0c0 40-6 76-18 109s-29 61-50 84c-22 23-48 41-78 54-31 13-64 19-100 19s-69-6-99-19c-31-13-57-31-78-54-22-23-39-51-51-84s-18-69-18-109 6-76 18-109 29-61 51-84c21-23 47-41 78-54 30-13 63-19 99-19s69 6 100 19c30 13 56 31 78 54 21 23 38 51 50 84s18 69 18 109M459 177c-11 25-21 48-29 67s-17 36-27 51h-40V177h-97v342c23 5 44 9 64 12 19 2 36 3 51 3 107 0 161-40 161-121 0-41-18-72-54-91 7-11 14-22 20-32 5-11 11-21 17-32 5-11 11-23 17-36 5-13 12-28 19-45M363 373h18c21 0 37 3 48 9 11 5 16 16 16 32 0 13-5 23-14 28s-23 8-41 8h-14c-5-1-10-1-13-2z"/><glyph unicode="²" horiz-adv-x="363" d="M312 586c0-15-2-28-7-40s-11-23-18-33c-8-11-17-20-27-29l-30-27c-11-9-23-20-35-31-12-12-22-23-29-33h156v-91H35c-1 5-1 10-1 15v13c0 33 9 62 27 89 17 26 43 53 77 82 18 15 33 29 44 40s16 23 16 35c0 10-3 18-9 24s-15 9-26 9c-19 0-37-4-53-11-17-8-31-17-42-26l-52 78c17 15 40 28 67 41 27 12 55 18 85 18 26 0 48-3 67-9 18-6 33-14 44-25s20-24 25-39 8-32 8-50z"/><glyph unicode="¶" horiz-adv-x="710" d="M259 258c-75 10-130 32-165 67-36 34-54 84-54 151 0 73 29 128 86 167s139 58 246 58c21 0 43-1 66-2s45-3 68-5 45-5 66-8 41-7 58-11v-861H489v760c-9 1-23 2-40 3s-33 1-48 1v-764H259z"/><glyph unicode="º" horiz-adv-x="457" d="M424 506c0-31-5-59-14-84-10-25-23-45-40-62s-38-31-62-40-50-14-79-14-55 5-79 14-45 23-62 40-31 37-40 62c-10 25-15 53-15 84 0 32 5 61 15 86 9 25 23 46 40 63s38 31 62 40 50 14 79 14 55-5 79-14 45-23 62-40 30-38 40-63c9-25 14-54 14-86m-114 0c0 32-7 57-21 76-14 18-34 27-60 27-25 0-45-9-60-27-15-19-22-44-22-76 0-30 7-54 22-72 14-19 34-28 60-28s46 9 60 28c14 18 21 42 21 72z"/><glyph unicode="¾" horiz-adv-x="878" d="M155 388c23 0 40 4 49 11s14 15 14 26c0 27-23 41-70 41h-41v82h41c15 0 28 3 38 9s15 15 15 27c0 21-15 32-44 32-15 0-31-2-46-7s-30-11-44-18l-38 79c17 11 38 20 63 28 25 7 49 11 73 11 27 0 49-3 68-9 18-6 33-14 44-24 11-11 18-23 23-36 5-14 7-28 7-43 0-14-3-27-9-40-7-13-18-25-33-37 21-10 37-23 47-40 9-17 14-35 14-56 0-18-3-35-9-51s-16-30-29-41c-13-12-31-21-52-28-22-7-49-10-80-10-11 0-23 1-35 2-13 1-25 3-37 6s-23 6-33 9c-11 3-20 6-28 10l23 89c23-9 42-15 58-18 15-3 32-4 51-4m544 305L344 0H206l357 693m253-292V170h46V87h-46V1h-94v86H535v72c28 47 57 90 86 129 29 38 61 76 96 113m5-111c-15-17-30-36-43-55-14-20-27-42-39-65h82z"/><glyph unicode="Â" horiz-adv-x="721" d="M544 0c-7 24-15 49-24 74s-18 51-27 76H223c-9-25-17-51-26-76s-18-50-25-74H10c26 75 51 144 74 207s46 123 69 179c22 56 44 109 66 160 21 50 44 99 67 147h149c23-48 45-97 67-147 22-51 44-104 67-160 22-56 45-116 68-179S685 75 711 0M357 536c-3-10-8-24-15-41s-14-37-23-60-18-48-28-75c-11-27-21-56-32-86h197c-11 30-21 59-31 86s-19 52-28 75-17 43-24 60-12 31-16 41m158 275l-55-66-100 77-100-77-57 66 157 137z"/><glyph unicode="Æ" horiz-adv-x="994" d="M490 164H270c-14-25-29-53-46-82s-31-57-43-82H10c81 146 157 276 227 391 70 114 136 215 199 302h500V562H641V426h260V298H641V131h318V0H490m0 542c-11-15-23-34-36-55s-27-43-41-66c-15-23-29-47-42-70-14-23-27-44-38-63h157z"/><glyph unicode="Ê" horiz-adv-x="606" d="M80 0v693h468V562H236V426h277V298H236V131h335V0M471 811l-55-66-100 77-100-77-57 66 157 137z"/><glyph unicode="Î" horiz-adv-x="316" d="M80 693h156V0H80m236 811l-55-66-100 77-100-77-57 66 157 137z"/><glyph unicode="Ò" horiz-adv-x="790" d="M211 347c0-34 4-65 13-92 8-27 20-51 36-70 15-20 34-35 57-46s49-16 78-16 55 5 78 16 42 26 58 46c15 19 27 43 36 70 8 27 12 58 12 92s-4 65-12 93c-9 27-21 51-36 71-16 19-35 34-58 45s-49 16-78 16-55-5-78-16-42-27-57-46c-16-20-28-44-36-71-9-28-13-59-13-92m529 0c0-59-9-111-26-156-18-45-42-83-73-113-31-31-67-54-109-69-43-15-88-23-137-23-47 0-92 8-134 23s-79 38-110 69c-31 30-56 68-74 113s-27 97-27 156 9 112 28 157 44 82 76 113c31 31 68 54 110 69 41 15 85 23 131 23 47 0 92-8 134-23s79-38 110-69 56-68 74-113 27-98 27-157M363 959l142-162-68-61-165 139z"/><glyph unicode="Ö" horiz-adv-x="790" d="M211 347c0-34 4-65 13-92 8-27 20-51 36-70 15-20 34-35 57-46s49-16 78-16 55 5 78 16 42 26 58 46c15 19 27 43 36 70 8 27 12 58 12 92s-4 65-12 93c-9 27-21 51-36 71-16 19-35 34-58 45s-49 16-78 16-55-5-78-16-42-27-57-46c-16-20-28-44-36-71-9-28-13-59-13-92m529 0c0-59-9-111-26-156-18-45-42-83-73-113-31-31-67-54-109-69-43-15-88-23-137-23-47 0-92 8-134 23s-79 38-110 69c-31 30-56 68-74 113s-27 97-27 156 9 112 28 157 44 82 76 113c31 31 68 54 110 69 41 15 85 23 131 23 47 0 92-8 134-23s79-38 110-69 56-68 74-113 27-98 27-157M277 762c-21 0-39 7-54 21-15 13-23 32-23 55s8 42 23 56c15 13 33 20 54 20s39-7 54-20c15-14 23-33 23-56s-8-42-23-55c-15-14-33-21-54-21m223 0c-21 0-39 7-54 21-15 13-23 32-23 55s8 42 23 56c15 13 33 20 54 20s39-7 54-20c15-14 23-33 23-56s-8-42-23-55c-15-14-33-21-54-21z"/><glyph unicode="Ú" horiz-adv-x="707" d="M351-14c-49 0-91 7-126 21-35 13-64 32-87 57-23 24-40 53-51 87-11 33-17 70-17 111v431h156V275c0-28 3-52 10-71 6-20 15-36 26-48 11-13 24-22 40-27 15-5 32-8 51-8 38 0 69 12 93 35 23 23 35 63 35 119v418h156V262c0-41-6-78-17-112s-29-63-52-87c-23-25-53-44-89-57s-79-20-128-20m138 889L324 736l-68 61 142 162z"/><glyph unicode="Þ" horiz-adv-x="644" d="M308 596c44 0 85-4 122-12 37-9 68-22 95-41s47-43 62-72 22-65 22-107c0-83-28-143-84-180s-136-56-240-56h-49V0H80v693h156V593c5 1 10 1 17 2 7 0 13 0 20 1h35m-10-132c-11 0-22 0-33-1s-21-1-29-2V261h49c54 0 95 7 122 22s41 42 41 82c0 19-3 35-10 48s-17 23-30 31c-13 7-29 13-48 16s-39 4-62 4z"/><glyph unicode="â" horiz-adv-x="553" d="M271 104c15 0 29 0 42 1s24 2 32 3v113c-6 1-15 3-27 4s-23 2-33 2c-14 0-27-1-39-2-13-2-24-5-33-10s-17-11-22-19-8-18-8-30c0-23 8-39 24-48 15-9 37-14 64-14m-12 436c44 0 81-5 110-15s53-24 71-43c17-19 30-41 37-68s11-56 11-89V15c-21-5-51-10-89-16-38-7-84-10-138-10-34 0-65 3-92 9-28 6-52 16-72 30-20 13-35 31-46 53s-16 49-16 81c0 31 6 57 19 78 12 21 28 38 49 51s44 22 71 28c27 5 54 8 83 8 19 0 37-1 52-2 15-2 27-4 36-7v14c0 25-8 46-23 61s-42 23-80 23c-25 0-50-2-75-5-25-4-46-9-64-16L84 515c9 3 20 6 33 9s27 5 42 8c15 2 32 4 49 6 17 1 34 2 51 2m157 105l-55-66-100 77-100-77-57 66 157 137z"/><glyph unicode="æ" horiz-adv-x="874" d="M259 540c21 0 39-1 56-4s32-7 45-12c13-6 24-13 35-22s21-20 30-33c23 25 48 44 77 55s59 16 92 16c36 0 68-6 97-17 29-12 53-29 74-52s37-51 48-84c11-34 16-73 16-117 0-9 0-18-1-28-1-11-1-20-2-28H488c3-31 18-55 43-73s59-27 102-27c27 0 54 3 81 8 26 5 47 11 64 18l20-121c-8-4-19-8-32-12s-28-7-44-10c-17-3-34-6-53-8s-37-3-56-3c-39 0-74 4-103 13s-54 20-75 34C385 4 327-11 261-11c-34 0-65 3-92 9-28 6-52 16-72 30-20 13-35 31-46 53s-16 49-16 81c0 31 6 57 19 78 12 21 28 38 49 51s44 22 71 28c27 5 54 8 83 8 19 0 37-1 52-2 15-2 27-4 36-7v17c0 25-8 45-23 60-15 14-42 21-80 21-25 0-50-2-75-5-25-4-46-9-64-16L84 515c9 3 20 6 33 9s27 5 42 8c15 2 32 4 49 6 17 1 34 2 51 2m12-436c21 0 40 1 57 4 17 2 31 6 44 11-9 24-16 44-19 59s-5 30-6 45c-9 1-20 2-33 3s-22 1-29 1c-14 0-27-1-39-2-13-2-24-5-33-10s-17-11-22-19-8-18-8-30c0-23 8-39 24-48 15-9 37-14 64-14m413 212c-1 13-3 25-6 37-4 12-10 23-17 32-8 9-18 17-29 23-12 6-27 9-44 9s-31-3-43-8c-12-6-22-14-30-23s-14-20-18-32c-5-13-8-25-10-38z"/><glyph unicode="ê" horiz-adv-x="584" d="M45 259c0 47 7 88 22 123 14 35 33 64 56 87s50 41 81 53c30 12 61 18 93 18 75 0 134-23 177-68 43-46 65-113 65-202 0-9 0-18-1-28-1-11-1-20-2-28H198c3-31 18-55 43-73s59-27 102-27c27 0 54 3 81 8 26 5 47 11 64 18l20-121c-8-4-19-8-32-12s-28-7-44-10c-17-3-34-6-53-8s-37-3-56-3c-47 0-88 7-123 21s-64 33-87 58c-23 24-40 53-51 86s-17 69-17 108m350 57c-1 13-3 25-6 37-4 12-10 23-17 32-8 9-18 17-29 23-12 6-27 9-44 9s-31-3-43-8c-12-6-22-14-30-23s-14-20-18-32c-5-13-8-25-10-38m249 329l-55-66-100 77-100-77-57 66 157 137z"/><glyph unicode="î" horiz-adv-x="289" d="M219 0H70v526h149m83 119l-55-66-100 77-100-77-57 66 157 137z"/><glyph unicode="ò" horiz-adv-x="607" d="M562 264c0-41-6-79-18-113-12-35-29-64-52-88-23-25-50-44-81-57-32-13-68-20-107-20S230-7 199 6c-32 13-59 32-82 57-23 24-40 53-53 88-13 34-19 72-19 113s7 79 20 113 31 63 54 87 50 43 82 56c31 13 66 20 103 20 38 0 73-7 105-20 31-13 58-32 81-56s40-53 53-87 19-72 19-113m-152 0c0 46-9 82-27 109-19 26-45 39-79 39s-60-13-79-39c-19-27-28-63-28-109s9-82 28-109 45-41 79-41 60 14 79 41c18 27 27 63 27 109M271 799l142-162-68-61-165 139z"/><glyph unicode="ö" horiz-adv-x="607" d="M562 264c0-41-6-79-18-113-12-35-29-64-52-88-23-25-50-44-81-57-32-13-68-20-107-20S230-7 199 6c-32 13-59 32-82 57-23 24-40 53-53 88-13 34-19 72-19 113s7 79 20 113 31 63 54 87 50 43 82 56c31 13 66 20 103 20 38 0 73-7 105-20 31-13 58-32 81-56s40-53 53-87 19-72 19-113m-152 0c0 46-9 82-27 109-19 26-45 39-79 39s-60-13-79-39c-19-27-28-63-28-109s9-82 28-109 45-41 79-41 60 14 79 41c18 27 27 63 27 109M192 602c-21 0-39 7-54 21-15 13-23 32-23 55s8 42 23 56c15 13 33 20 54 20s39-7 54-20c15-14 23-33 23-56s-8-42-23-55c-15-14-33-21-54-21m223 0c-21 0-39 7-54 21-15 13-23 32-23 55s8 42 23 56c15 13 33 20 54 20s39-7 54-20c15-14 23-33 23-56s-8-42-23-55c-15-14-33-21-54-21z"/><glyph unicode="ú" horiz-adv-x="589" d="M519 18c-25-7-58-14-98-20-40-7-82-10-126-10-45 0-82 6-111 18-30 12-54 29-71 51-17 21-30 47-37 77s-11 63-11 99v293h149V251c0-48 6-83 19-104s36-32 71-32c11 0 22 1 34 2s23 2 32 3v406h149m-99 189L255 576l-68 61 142 162z"/><glyph unicode="þ" horiz-adv-x="604" d="M559 263c0-41-5-78-15-111s-25-62-44-86-43-43-72-56-62-20-99-20c-21 0-40 2-58 6s-35 10-52 17v-198H70v937l149 24V528c11 3 24 6 38 8 14 1 26 2 37 2 41 0 77-6 110-19s61-32 84-55c23-24 40-53 53-87 12-34 18-72 18-114m-152-4c0 46-10 83-30 111-21 27-50 41-88 41-13 0-26-1-39-2-13-2-24-4-31-7V137c9-6 22-11 37-15s30-6 45-6c71 0 106 48 106 143z"/><glyph unicode="Ă" horiz-adv-x="721" d="M544 0c-7 24-15 49-24 74s-18 51-27 76H223c-9-25-17-51-26-76s-18-50-25-74H10c26 75 51 144 74 207s46 123 69 179c22 56 44 109 66 160 21 50 44 99 67 147h149c23-48 45-97 67-147 22-51 44-104 67-160 22-56 45-116 68-179S685 75 711 0M357 536c-3-10-8-24-15-41s-14-37-23-60-18-48-28-75c-11-27-21-56-32-86h197c-11 30-21 59-31 86s-19 52-28 75-17 43-24 60-12 31-16 41m13 215c-23 0-45 4-64 11-20 7-37 18-51 31-15 13-26 30-34 50-9 19-13 41-13 66v8h101c2-28 9-47 20-56 11-10 25-15 41-15s30 5 41 15c11 9 18 28 20 56h101v-8c0-25-4-47-12-66-9-20-20-37-34-50-15-13-32-24-52-31s-41-11-64-11z"/><glyph unicode="Ć" horiz-adv-x="648" d="M396-14c-113 0-198 31-257 94S50 232 50 347c0 57 9 109 27 154s43 83 74 114 69 54 112 70 90 24 141 24c29 0 56-2 80-6 24-5 45-10 63-15 18-6 33-12 45-18s21-11 26-14l-45-126c-21 11-46 21-74 29-29 8-61 12-97 12-24 0-47-4-70-12s-44-21-61-38c-18-18-32-41-43-69s-16-62-16-102c0-32 4-62 11-89 7-28 18-52 34-72 15-20 36-36 61-47 25-12 56-18 92-18 23 0 43 1 61 4s34 6 48 10c14 3 26 7 37 12s20 9 29 13l43-125c-22-13-53-25-93-36s-86-16-139-16m123 889L354 736l-68 61 142 162z"/><glyph unicode="Ċ" horiz-adv-x="648" d="M396-14c-113 0-198 31-257 94S50 232 50 347c0 57 9 109 27 154s43 83 74 114 69 54 112 70 90 24 141 24c29 0 56-2 80-6 24-5 45-10 63-15 18-6 33-12 45-18s21-11 26-14l-45-126c-21 11-46 21-74 29-29 8-61 12-97 12-24 0-47-4-70-12s-44-21-61-38c-18-18-32-41-43-69s-16-62-16-102c0-32 4-62 11-89 7-28 18-52 34-72 15-20 36-36 61-47 25-12 56-18 92-18 23 0 43 1 61 4s34 6 48 10c14 3 26 7 37 12s20 9 29 13l43-125c-22-13-53-25-93-36s-86-16-139-16m-4 774c-21 0-40 7-55 21-16 14-24 33-24 57s8 43 24 57c15 14 34 21 55 21s40-7 56-21c15-14 23-33 23-57s-8-43-23-57c-16-14-35-21-56-21z"/><glyph unicode="Ď" horiz-adv-x="737" d="M236 127c7-1 16-1 26-1 9-1 21-1 34-1 78 0 136 20 174 59 37 39 56 94 56 163 0 73-18 128-54 165s-93 56-171 56h-33c-11-1-22-2-32-3m451-218c0-60-9-112-28-157s-45-82-79-111c-35-29-77-51-126-66S349-9 288-9c-28 0-61 1-98 4-37 2-74 7-110 14v675c36 7 74 11 113 14 39 2 72 3 100 3 59 0 113-7 162-20 48-13 89-34 124-63s61-65 80-110 28-98 28-161M198 884l55 66 100-77 100 77 57-66-157-137z"/><glyph unicode="Ē" horiz-adv-x="606" d="M80 0v693h468V562H236V426h277V298H236V131h335V0M155 878h322V776H155z"/><glyph unicode="Ė" horiz-adv-x="606" d="M80 0v693h468V562H236V426h277V298H236V131h335V0M323 760c-21 0-40 7-55 21-16 14-24 33-24 57s8 43 24 57c15 14 34 21 55 21s40-7 56-21c15-14 23-33 23-57s-8-43-23-57c-16-14-35-21-56-21z"/><glyph unicode="Ě" horiz-adv-x="606" d="M80 0v693h468V562H236V426h277V298H236V131h335V0M162 884l55 66 100-77 100 77 57-66-157-137z"/><glyph unicode="Ğ" horiz-adv-x="702" d="M418 573c-73 0-125-20-157-60-33-41-49-96-49-166 0-34 4-65 12-92 8-28 20-52 36-72s36-35 60-46 52-17 84-17c17 0 32 0 45 1 12 1 23 2 32 4v241h156V23c-19-7-49-15-90-23-41-9-92-13-153-13-52 0-99 8-141 24-43 16-79 39-109 70s-53 68-69 113c-17 45-25 96-25 153 0 58 9 109 27 154s43 83 74 114 68 54 111 70c42 16 87 24 135 24 33 0 62-2 89-6 26-5 49-10 68-15 19-6 34-12 47-18 12-6 21-11 26-14l-45-125c-21 11-46 21-73 30-28 8-58 12-91 12m-29 178c-23 0-45 4-64 11-20 7-37 18-51 31-15 13-26 30-34 50-9 19-13 41-13 66v8h101c2-28 9-47 20-56 11-10 25-15 41-15s30 5 41 15c11 9 18 28 20 56h101v-8c0-25-4-47-12-66-9-20-20-37-34-50-15-13-32-24-52-31s-41-11-64-11z"/><glyph unicode="Ģ" horiz-adv-x="702" d="M418 573c-73 0-125-20-157-60-33-41-49-96-49-166 0-34 4-65 12-92 8-28 20-52 36-72s36-35 60-46 52-17 84-17c17 0 32 0 45 1 12 1 23 2 32 4v241h156V23c-19-7-49-15-90-23-41-9-92-13-153-13-52 0-99 8-141 24-43 16-79 39-109 70s-53 68-69 113c-17 45-25 96-25 153 0 58 9 109 27 154s43 83 74 114 68 54 111 70c42 16 87 24 135 24 33 0 62-2 89-6 26-5 49-10 68-15 19-6 34-12 47-18 12-6 21-11 26-14l-45-125c-21 11-46 21-73 30-28 8-58 12-91 12M347-52h118c1-7 2-15 3-22v-15c0-25-4-46-12-63s-19-30-32-40-28-17-45-21c-17-5-35-7-53-7-10 0-20 1-30 2s-17 3-21 4v84c10 0 20 1 29 2s16 4 23 9c6 4 11 10 15 19 3 8 5 19 5 34z"/><glyph unicode="Ħ" horiz-adv-x="756" d="M10 612h81v81h156v-81h262v81h156v-81h81V502h-81V0H509v284H247V0H91v502H10m499 0H247v-84h262z"/><glyph unicode="Ī" horiz-adv-x="316" d="M80 693h156V0H80M-1 878h322V776H-1z"/><glyph unicode="Į" horiz-adv-x="316" d="M80 693h156V0c-7-5-14-12-22-19s-16-15-23-22c-9-9-15-17-20-24-5-8-8-16-8-23s2-13 7-18c4-5 12-7 23-7 6 0 13 1 22 2 8 1 18 3 29 6l12-100c-13-5-29-9-48-12s-36-4-51-4c-45 0-77 8-96 25s-29 39-29 66c0 14 3 28 9 41s14 26 24 39c8 10 17 19 26 28 9 8 17 15 26 22H80z"/><glyph unicode="Ĳ" horiz-adv-x="841" d="M80 693h156V0H80m691 233c0-34-4-66-11-96-8-30-21-56-40-78-19-23-45-40-77-53-33-13-74-20-123-20-45 0-84 6-117 17s-60 23-81 38l52 121c19-11 40-21 62-30s46-13 72-13c38 0 65 9 82 28s25 50 25 94v452h156z"/><glyph unicode="Ķ" horiz-adv-x="684" d="M489 0c-14 23-30 47-49 74-19 26-40 52-62 79-23 26-46 51-70 76-24 24-48 45-72 64V0H80v693h156V431c41 43 82 87 123 134 41 46 79 89 114 128h185c-47-56-95-110-142-162-48-52-98-104-151-157 55-46 109-101 161-164C577 147 627 77 674 0M308-52h118c1-7 2-15 3-22v-15c0-25-4-46-12-63s-19-30-32-40-28-17-45-21c-17-5-35-7-53-7-10 0-20 1-30 2s-17 3-21 4v84c10 0 20 1 29 2s16 4 23 9c6 4 11 10 15 19 3 8 5 19 5 34z"/><glyph unicode="ĺ" horiz-adv-x="316" d="M280-10c-43 1-78 5-105 14s-49 21-64 37C95 56 84 75 79 98c-6 22-9 47-9 75v579l149 24V203c0-13 1-25 3-36s6-20 12-27c5-7 13-13 24-18s25-8 43-9m-3 748L80 792l-30 69 212 101z"/><glyph unicode="ľ" horiz-adv-x="370" d="M280-10c-43 1-78 5-105 14s-49 21-64 37C95 56 84 75 79 98c-6 22-9 47-9 75v579l149 24V203c0-13 1-25 3-36s6-20 12-27c5-7 13-13 24-18s25-8 43-9m109 663l-33-244h-89v244z"/><glyph unicode="ł" horiz-adv-x="364" d="M-10 393l107 53v306l149 24V520l71 36 45-92-116-58V203c0-13 1-25 3-36s6-20 12-27c5-7 13-13 24-18s25-8 43-9L307-10c-43 1-78 5-105 14s-49 21-64 37c-16 15-27 34-32 57-6 22-9 47-9 75v159l-62-31z"/><glyph unicode="ņ" horiz-adv-x="589" d="M70 508c25 7 58 14 98 21 40 6 82 9 126 9 45 0 82-6 112-17 29-12 53-29 70-50s30-47 37-76 11-62 11-98V0H375v279c0 48-6 82-19 102s-36 30-71 30c-11 0-22 0-34-1s-23-3-32-4V0H70m169-52h118c1-7 2-15 3-22v-15c0-25-4-46-12-63s-19-30-32-40-28-17-45-21c-17-5-35-7-53-7-10 0-20 1-30 2s-17 3-21 4v84c10 0 20 1 29 2s16 4 23 9c6 4 11 10 15 19 3 8 5 19 5 34z"/><glyph unicode="Ŋ" horiz-adv-x="756" d="M521 42c-42 73-87 144-135 214-49 69-99 135-152 198V0H80v693h127c22-22 46-49 73-81s54-66 82-102c27-37 55-74 82-113s53-77 77-113v409h155V17c0-69-16-121-47-154s-81-50-150-50c-9 0-22 1-38 3-17 1-33 5-49 10l20 121c10-3 18-5 25-6 6-1 15-2 28-2 21 0 36 7 44 21s12 34 12 61z"/><glyph unicode="Ŏ" horiz-adv-x="790" d="M211 347c0-34 4-65 13-92 8-27 20-51 36-70 15-20 34-35 57-46s49-16 78-16 55 5 78 16 42 26 58 46c15 19 27 43 36 70 8 27 12 58 12 92s-4 65-12 93c-9 27-21 51-36 71-16 19-35 34-58 45s-49 16-78 16-55-5-78-16-42-27-57-46c-16-20-28-44-36-71-9-28-13-59-13-92m529 0c0-59-9-111-26-156-18-45-42-83-73-113-31-31-67-54-109-69-43-15-88-23-137-23-47 0-92 8-134 23s-79 38-110 69c-31 30-56 68-74 113s-27 97-27 156 9 112 28 157 44 82 76 113c31 31 68 54 110 69 41 15 85 23 131 23 47 0 92-8 134-23s79-38 110-69 56-68 74-113 27-98 27-157M395 751c-23 0-45 4-64 11-20 7-37 18-51 31-15 13-26 30-34 50-9 19-13 41-13 66v8h101c2-28 9-47 20-56 11-10 25-15 41-15s30 5 41 15c11 9 18 28 20 56h101v-8c0-25-4-47-12-66-9-20-20-37-34-50-15-13-32-24-52-31s-41-11-64-11z"/><glyph unicode="Ŕ" horiz-adv-x="667" d="M283 701c104 0 184-18 239-55s83-95 83-173c0-49-11-88-33-118-23-31-55-55-97-72 14-17 29-37 44-59 15-23 31-46 46-70 15-25 29-50 43-76 14-27 27-53 39-78H472c-13 23-25 46-38 69s-27 46-40 68c-14 22-28 43-41 63-13 19-27 37-40 53h-77V0H80v683c34 7 69 11 106 14 36 3 68 4 97 4m9-133c-11 0-21 0-30-1s-18-1-26-2V377h44c59 0 101 7 126 22s38 40 38 75c0 34-13 58-38 73-26 14-64 21-114 21m157 307L284 736l-68 61 142 162z"/><glyph unicode="Ř" horiz-adv-x="667" d="M283 701c104 0 184-18 239-55s83-95 83-173c0-49-11-88-33-118-23-31-55-55-97-72 14-17 29-37 44-59 15-23 31-46 46-70 15-25 29-50 43-76 14-27 27-53 39-78H472c-13 23-25 46-38 69s-27 46-40 68c-14 22-28 43-41 63-13 19-27 37-40 53h-77V0H80v683c34 7 69 11 106 14 36 3 68 4 97 4m9-133c-11 0-21 0-30-1s-18-1-26-2V377h44c59 0 101 7 126 22s38 40 38 75c0 34-13 58-38 73-26 14-64 21-114 21M164 884l55 66 100-77 100 77 57-66-157-137z"/><glyph unicode="Ŝ" horiz-adv-x="582" d="M269 119c22 0 40 2 55 6 14 3 25 8 34 15 9 6 15 13 18 22s5 18 5 29c0 23-11 42-32 57s-58 31-110 48c-23 8-45 17-68 28-23 10-43 23-61 39-18 15-33 34-44 57-11 22-17 49-17 81s6 61 18 87c12 25 29 47 51 65s49 32 80 42c31 9 67 14 106 14 47 0 87-5 121-15s62-21 84-33l-45-123c-19 10-41 19-64 27-24 7-53 11-86 11-37 0-64-5-80-15-17-11-25-27-25-48 0-13 3-23 9-32s15-16 26-23 23-14 38-19c14-6 30-12 47-18 36-13 67-26 94-39s49-29 67-46c17-17 30-38 39-61s13-52 13-85c0-65-23-115-68-150-45-36-114-54-205-54-31 0-58 2-83 6-25 3-46 8-65 13S85 16 72 22c-14 6-26 12-35 17l44 124c21-11 46-21 77-30 30-9 67-14 111-14m190 692l-55-66-100 77-100-77-57 66 157 137z"/><glyph unicode="Ţ" horiz-adv-x="614" d="M594 693V560H385V0h-32c-3-7-7-14-10-21s-6-14-8-19c21-11 36-23 44-38s12-30 12-45c0-32-13-56-38-73s-59-25-100-25c-15 0-29 1-44 4-15 2-29 5-44 9l18 87c5-1 13-3 26-6 12-3 24-5 36-5 9 0 18 2 25 6 7 3 10 10 11 19 1 8-2 15-9 22s-19 12-34 15l-12 3c3 9 8 20 13 33s10 24 15 34h-25v560H20v133z"/><glyph unicode="Ŧ" horiz-adv-x="614" d="M594 693V560H385V377h141V267H385V0H229v267H88v110h141v183H20v133z"/><glyph unicode="Ū" horiz-adv-x="707" d="M351-14c-49 0-91 7-126 21-35 13-64 32-87 57-23 24-40 53-51 87-11 33-17 70-17 111v431h156V275c0-28 3-52 10-71 6-20 15-36 26-48 11-13 24-22 40-27 15-5 32-8 51-8 38 0 69 12 93 35 23 23 35 63 35 119v418h156V262c0-41-6-78-17-112s-29-63-52-87c-23-25-53-44-89-57s-79-20-128-20M192 878h322V776H192z"/><glyph unicode="Ů" horiz-adv-x="707" d="M351-14c-49 0-91 7-126 21-35 13-64 32-87 57-23 24-40 53-51 87-11 33-17 70-17 111v431h156V275c0-28 3-52 10-71 6-20 15-36 26-48 11-13 24-22 40-27 15-5 32-8 51-8 38 0 69 12 93 35 23 23 35 63 35 119v418h156V262c0-41-6-78-17-112s-29-63-52-87c-23-25-53-44-89-57s-79-20-128-20m120 848c0-19-3-35-9-49-7-15-15-27-26-36-11-10-24-17-38-22-15-5-30-8-46-8-15 0-30 3-44 8s-26 12-37 22c-11 9-20 21-26 36-7 14-10 30-10 49s3 35 10 50c6 14 15 26 26 36 11 9 23 17 37 22s29 7 44 7c16 0 31-2 46-7 14-5 27-13 38-22 11-10 19-22 26-36 6-15 9-31 9-50m-73 0c0 15-5 27-14 35s-20 12-32 12c-11 0-22-4-31-12s-14-20-14-35 5-27 14-35 20-12 31-12c12 0 23 4 32 12s14 20 14 35z"/><glyph unicode="Ų" horiz-adv-x="707" d="M345-14c-48 1-89 8-124 22s-63 33-85 58c-23 24-39 53-50 86s-16 70-16 110v431h156V275c0-28 3-52 10-71 6-20 15-36 26-48 11-13 24-22 40-27 15-5 32-8 51-8 38 0 69 12 93 35 23 23 35 63 35 119v418h156V262c0-53-9-99-27-139s-48-73-90-98c-9-5-17-10-24-15S482 0 476-5c-7-5-13-11-19-16l-20-20c-9-9-15-17-20-24-5-8-8-16-8-23s2-13 7-18c4-5 12-7 23-7 6 0 13 1 22 2 8 1 18 3 29 6l12-100c-13-5-29-9-48-12s-36-4-51-4c-45 0-77 8-96 25s-29 39-29 66c0 14 3 28 9 41s14 26 24 39c11 15 23 27 34 36z"/><glyph unicode="Ŷ" horiz-adv-x="661" d="M334 408c28 47 55 95 80 142s49 95 70 143h172c-38-75-77-147-118-217s-84-140-129-211V0H253v263c-45 71-88 141-129 212S43 618 5 693h181c21-48 44-96 69-143s51-95 79-142m153 403l-55-66-100 77-100-77-57 66 157 137z"/><glyph unicode="Ż" horiz-adv-x="610" d="M569 585c-21-22-47-50-76-85s-60-74-91-115-62-84-93-128-58-86-82-126h353V0H35v93c19 34 42 72 69 114 27 41 55 83 84 126 29 42 59 83 90 123 30 39 58 75 84 106H51v131h518m-264 67c-21 0-40 7-55 21-16 14-24 33-24 57s8 43 24 57c15 14 34 21 55 21s40-7 56-21c15-14 23-33 23-57s-8-43-23-57c-16-14-35-21-56-21z"/><glyph unicode="ſ" horiz-adv-x="329" d="M298 776c28 0 54-3 77-8 23-6 41-12 54-17l-29-119c-13 6-28 11-43 14-16 3-31 4-44 4-18 0-33-2-45-7-13-5-22-12-29-21s-12-19-15-31-5-25-5-39V0H70v554c0 68 19 122 58 162 38 40 95 60 170 60z"/><glyph unicode="ț" horiz-adv-x="444" d="M65 657l149 24V526h179V402H214V217c0-31 6-56 17-75s33-28 66-28c16 0 33 2 50 5s32 7 46 12l21-116c-18-7-38-14-60-19s-49-8-81-8c-41 0-74 6-101 17s-48 26-64 46c-16 19-27 43-33 71-7 28-10 59-10 93M196-52h118c1-7 2-15 3-22v-15c0-25-4-46-12-63s-19-30-32-40-28-17-45-21c-17-5-35-7-53-7-10 0-20 1-30 2s-17 3-21 4v84c10 0 20 1 29 2s16 4 23 9c6 4 11 10 15 19 3 8 5 19 5 34z"/><glyph unicode="ˉ" horiz-adv-x="376" d="M27 725h322V623H27z"/><glyph unicode="˛" horiz-adv-x="312" d="M176-221c-45 0-77 8-96 25-19 16-29 38-29 66 0 14 3 28 9 41s14 26 24 39c11 14 23 26 36 37s25 20 36 28h117c-7-5-16-13-28-23-12-11-24-22-35-33-9-9-15-17-20-24-5-8-8-16-8-23s2-13 7-18c4-5 12-7 23-7 6 0 13 1 22 2 8 1 18 3 29 6l12-100c-13-5-29-9-48-12s-36-4-51-4z"/><glyph unicode="Ẃ" horiz-adv-x="948" d="M545 619c8-27 17-58 27-92 9-35 20-70 31-107s22-73 33-110 22-71 33-102c9 34 18 71 27 111s17 81 25 124 16 85 24 128c7 42 14 83 21 122h162c-23-116-50-234-80-353-31-119-64-233-99-340H606c-23 64-46 131-68 202-22 70-44 140-65 211-21-71-43-141-64-211-21-71-44-138-67-202H199c-35 107-68 221-98 340-31 119-58 237-81 353h169c7-39 14-80 22-122 8-43 16-85 25-128s18-84 27-124 18-77 27-111c12 33 24 67 35 104s22 73 33 110 21 72 30 106 17 64 24 91m178 254L425 734l-68 61 142 162z"/><glyph unicode="Ỳ" horiz-adv-x="661" d="M334 408c28 47 55 95 80 142s49 95 70 143h172c-38-75-77-147-118-217s-84-140-129-211V0H253v263c-45 71-88 141-129 212S43 618 5 693h181c21-48 44-96 69-143s51-95 79-142m-56 551l142-162-68-61-165 139z"/><glyph unicode="⁴" horiz-adv-x="363" d="M301 701V470h46v-83h-46v-86h-94v86H20v72c28 47 57 90 86 129 29 38 61 76 96 113m5-111c-15-17-30-36-43-55-14-20-27-42-39-65h82z"/><glyph unicode="⁸" horiz-adv-x="363" d="M343 413c0-17-3-33-9-48s-15-27-28-37c-13-11-30-19-50-25-21-6-46-9-75-9-33 0-60 4-81 11s-37 17-48 28c-12 11-20 24-24 37-5 13-7 25-7 36 0 23 6 43 18 58s27 28 44 39c-19 13-32 27-40 40s-12 30-12 50c0 15 3 30 9 44s15 26 28 37 29 19 48 26c19 6 41 9 66 9 29 0 54-3 73-10s35-15 47-26c11-11 19-22 24-35s7-25 7-38c0-18-5-35-15-50-11-16-24-29-41-38 25-15 42-30 52-45 9-15 14-33 14-54m-217 0c0-9 4-18 12-27s23-14 44-14 35 4 44 13c8 9 12 18 12 28 0 17-7 30-20 39-14 9-32 16-55 21-11-7-20-16-27-25-7-10-10-22-10-35m105 181c0 8-4 16-11 25s-20 13-37 13-30-4-37-13-11-17-11-25c0-11 4-22 13-32 8-10 23-18 44-25 13 7 23 15 30 24 6 9 9 20 9 33z"/><glyph unicode="₂" horiz-adv-x="363" d="M312 286c0-15-2-28-7-40s-11-23-18-33c-8-11-17-20-27-29l-30-27c-11-9-23-20-35-31-12-12-22-23-29-33h156V2H35c-1 5-1 10-1 15v13c0 33 9 62 27 89 17 26 43 53 77 82 18 15 33 29 44 40s16 23 16 35c0 10-3 18-9 24s-15 9-26 9c-19 0-37-4-53-11-17-8-31-17-42-26l-52 78c17 15 40 28 67 41 27 12 55 18 85 18 26 0 48-3 67-9 18-6 33-14 44-25s20-24 25-39 8-32 8-50z"/><glyph unicode="₆" horiz-adv-x="363" d="M179 179c-8 0-16-1-25-3s-16-4-21-7c-4-59 15-89 57-89 17 0 29 5 36 15s11 21 11 34c0 17-4 29-13 38-9 8-24 12-45 12m20 73c25 0 46-3 63-9s32-14 43-25 19-23 24-38 7-31 7-48c0-18-3-35-9-52s-15-31-27-44-27-23-46-30c-19-8-41-12-66-12C136-6 97 9 71 39c-27 29-40 71-40 126 0 37 6 70 19 99 12 29 30 53 54 74 23 21 52 37 86 48 33 11 71 16 114 16l5-89c-47-2-84-9-110-20-26-12-46-29-59-52 7 3 15 5 26 8 11 2 22 3 33 3z"/><glyph unicode="ℓ" horiz-adv-x="541" d="M506 61c-25-24-54-42-87-55s-69-20-109-20c-57 0-101 13-133 40s-51 69-58 128l-45-32-48 72c16 13 32 25 47 36s29 22 44 34v240c0 94 18 163 53 207 35 43 81 65 140 65 28 0 52-5 73-15 20-10 37-23 51-40 13-17 23-37 30-60 6-23 9-47 9-72 0-61-19-119-57-175-39-56-92-114-161-175v-33c0-63 28-94 85-94 19 0 37 5 56 14s35 19 49 31M255 372c35 37 63 75 85 114 21 39 32 74 32 107 0 26-4 46-12 59s-22 20-42 20c-8 0-16-2-23-7-8-5-15-13-20-24-6-12-11-28-14-47-4-20-6-45-6-74z"/><glyph unicode="⅛" horiz-adv-x="878" d="M20 618c28 11 55 24 82 39 26 14 49 29 68 44h87V302H143v270c-13-7-27-14-41-20-14-7-31-14-51-21m605 162L301 0H163l357 693m338-580c0-17-3-33-9-48s-15-27-28-37c-13-11-30-19-50-25-21-6-46-9-75-9-33 0-60 4-81 11s-37 17-48 28c-12 11-20 24-24 37-5 13-7 25-7 36 0 23 6 43 18 58s27 28 44 39c-19 13-32 27-40 40s-12 30-12 50c0 15 3 30 9 44s15 26 28 37 29 19 48 26c19 6 41 9 66 9 29 0 54-3 73-10s35-15 47-26c11-11 19-22 24-35s7-25 7-38c0-18-5-35-15-50-11-16-24-29-41-38 25-15 42-30 52-45 9-15 14-33 14-54m-217 0c0-9 4-18 12-27s23-14 44-14 35 4 44 13c8 9 12 18 12 28 0 17-7 30-20 39-14 9-32 16-55 21-11-7-20-16-27-25-7-10-10-22-10-35m105 181c0 8-4 16-11 25s-20 13-37 13-30-4-37-13-11-17-11-25c0-11 4-22 13-32 8-10 23-18 44-25 13 7 23 15 30 24 6 9 9 20 9 33z"/><glyph unicode="⅕" horiz-adv-x="878" d="M20 618c28 11 55 24 82 39 26 14 49 29 68 44h87V302H143v270c-13-7-27-14-41-20-14-7-31-14-51-21m615 162L311 0H173l357 693m311-564c0-19-3-37-8-54-6-17-16-31-29-43s-31-21-52-28-47-10-78-10c-23 0-47 2-72 7-25 4-45 10-61 18l23 89c7-3 13-5 20-7 7-3 14-5 22-7 7-2 16-3 25-4s20-2 33-2c43 0 64 13 64 40 0 11-3 20-10 27-7 6-18 11-31 14s-30 4-50 5-43 1-70 1c2 17 4 37 7 59 2 21 4 43 6 64s4 40 5 59c1 18 3 33 4 44h237v-91H673c-1-7-1-16-2-27-1-12-2-22-3-29 33-1 60-4 82-10s40-14 53-25 23-24 29-39 9-32 9-51z"/><glyph unicode="⅙" horiz-adv-x="878" d="M20 618c28 11 55 24 82 39 26 14 49 29 68 44h87V302H143v270c-13-7-27-14-41-20-14-7-31-14-51-21m619 162L315 0H177l357 693m160-514c-8 0-16-1-25-3s-16-4-21-7c-4-59 15-89 57-89 17 0 29 5 36 15s11 21 11 34c0 17-4 29-13 38-9 8-24 12-45 12m20 73c25 0 46-3 63-9s32-14 43-25 19-23 24-38 7-31 7-48c0-18-3-35-9-52s-15-31-27-44-27-23-46-30c-19-8-41-12-66-12-52 0-91 15-117 45-27 29-40 71-40 126 0 37 6 70 19 99 12 29 30 53 54 74 23 21 52 37 86 48 33 11 71 16 114 16l5-89c-47-2-84-9-110-20-26-12-46-29-59-52 7 3 15 5 26 8 11 2 22 3 33 3z"/><glyph unicode="" horiz-adv-x="878" d="M155 388c23 0 40 4 49 11s14 15 14 26c0 27-23 41-70 41h-41v82h41c15 0 28 3 38 9s15 15 15 27c0 21-15 32-44 32-15 0-31-2-46-7s-30-11-44-18l-38 79c17 11 38 20 63 28 25 7 49 11 73 11 27 0 49-3 68-9 18-6 33-14 44-24 11-11 18-23 23-36 5-14 7-28 7-43 0-14-3-27-9-40-7-13-18-25-33-37 21-10 37-23 47-40 9-17 14-35 14-56 0-18-3-35-9-51s-16-30-29-41c-13-12-31-21-52-28-22-7-49-10-80-10-11 0-23 1-35 2-13 1-25 3-37 6s-23 6-33 9c-11 3-20 6-28 10l23 89c23-9 42-15 58-18 15-3 32-4 51-4m506 305L306 0H168l357 693M608 2c9 65 23 122 42 170s43 92 73 133H545v96h307v-84c-13-15-27-34-40-57-14-23-27-48-39-75s-22-57-31-88-16-63-20-95z"/><glyph unicode="" horiz-adv-x="878" d="M20 618c28 11 55 24 82 39 26 14 49 29 68 44h87V302H143v270c-13-7-27-14-41-20-14-7-31-14-51-21m605 162L301 0H163l357 693m183-467c8 0 17 1 26 3s15 4 20 7c4 59-14 89-55 89-17 0-29-5-37-14s-12-20-12-33c0-17 4-29 13-38s24-14 45-14m-21-75c-25 0-46 3-63 10-17 6-31 15-42 26s-19 24-24 39-8 31-8 48 3 34 9 51c6 16 15 30 27 43 12 12 27 22 46 30 19 7 41 11 66 11 52 0 91-15 118-45 26-31 39-73 39-126 0-73-22-131-66-173C740 22 671 1 577 1l-5 89c51 1 90 8 115 20 25 11 44 29 55 52-7-3-15-5-26-7-11-3-23-4-34-4z"/><glyph unicode="" horiz-adv-x="878" d="M81 302c9 65 23 122 42 170s43 92 73 133H18v96h307v-84c-13-15-27-34-40-57-14-23-27-48-39-75s-22-57-31-88-16-63-20-95m441 391L281 0H143l357 693m203-467c8 0 17 1 26 3s15 4 20 7c4 59-14 89-55 89-17 0-29-5-37-14s-12-20-12-33c0-17 4-29 13-38s24-14 45-14m-21-75c-25 0-46 3-63 10-17 6-31 15-42 26s-19 24-24 39-8 31-8 48 3 34 9 51c6 16 15 30 27 43 12 12 27 22 46 30 19 7 41 11 66 11 52 0 91-15 118-45 26-31 39-73 39-126 0-73-22-131-66-173C740 22 671 1 577 1l-5 89c51 1 90 8 115 20 25 11 44 29 55 52-7-3-15-5-26-7-11-3-23-4-34-4z"/><glyph unicode="∏" horiz-adv-x="730" d="M650 693v-802H494v670H236v-670H80v802z"/><glyph unicode="∕" horiz-adv-x="152" d="M323 693L-32 0h-138l357 693z"/><glyph unicode="∫" horiz-adv-x="401" d="M126 552c0 72 18 128 53 167s91 58 167 58h20c5-1 11-1 16-1 5-1 10-1 14-2V644h-43c-28 0-48-8-60-24-12-17-18-39-18-66V40c0-72-18-127-53-166s-91-59-167-59h-6c-4 0-9 0-14 1-5 0-11 0-16 1-5 0-10 0-14 1v130h43c28 0 48 8 60 25 12 16 18 38 18 65z"/><glyph unicode="≥" horiz-adv-x="568" d="M518 333L86 160 50 279l306 114L50 506l36 119 432-173m1-452H49v121h470z"/><glyph unicode="ﬁ" horiz-adv-x="708" d="M298 776c28 0 51-2 70-7 18-5 33-10 46-15l-26-117c-11 5-22 8-35 10s-27 3-40 3c-18 0-33-2-45-7-13-5-22-12-29-21s-12-19-15-31-5-25-5-39v-26h184V402H219V0H70v554c0 68 19 122 58 162 38 40 95 60 170 60M638 0H489v526h149m14 152c0-27-9-49-26-64-18-16-39-24-63-24s-45 8-62 24c-18 15-27 37-27 64s9 49 27 65c17 15 38 23 62 23s45-8 63-23c17-16 26-38 26-65z"/><glyph unicode="ﬄ" horiz-adv-x="1155" d="M298 776c28 0 54-3 77-8 23-6 41-12 54-17l-29-119c-13 6-28 11-43 14-16 3-31 4-44 4-18 0-33-2-45-7-13-5-22-12-29-21s-12-19-15-31-5-25-5-39v-26h184V402H219V0H70v554c0 68 19 122 58 162 38 40 95 60 170 60m419 0c28 0 51-2 70-7 18-5 33-10 46-15l-26-117c-11 5-22 8-35 10s-27 3-40 3c-18 0-33-2-45-7-13-5-22-12-29-21s-12-19-15-31-5-25-5-39v-26h184V402H638V0H489v554c0 68 19 122 58 162 38 40 95 60 170 60m402-786c-43 1-78 5-105 14s-49 21-64 37c-16 15-27 34-32 57-6 22-9 47-9 75v579l149 24V203c0-13 1-25 3-36s6-20 12-27c5-7 13-13 24-18s25-8 43-9z"/><glyph unicode="" horiz-adv-x="548" d="M218-15c-18 0-37 1-57 4-20 2-39 5-58 9S67 6 52 11s-27 9-36 13l29 124c17-7 40-15 67-23 27-9 60-13 100-13 46 0 80 9 101 26s32 41 32 70c0 18-4 33-11 46-8 12-19 22-32 30-13 7-29 13-47 16-19 3-38 4-59 4h-58v120h66c15 0 29 1 43 4 13 3 25 7 36 14 11 6 19 15 26 26 6 11 9 24 9 41 0 13-3 24-8 33s-12 17-20 23c-9 6-18 11-29 14s-23 4-34 4c-29 0-55-4-79-13-25-9-47-19-67-32L28 647c11 7 23 14 38 21 14 7 30 14 47 20s36 11 56 15c19 4 40 6 62 6 41 0 76-5 106-14 29-10 54-24 73-41 19-18 34-39 43-62 9-24 14-50 14-78 0-27-8-54-23-79-15-26-36-46-62-59 36-15 64-36 84-65 19-29 29-64 29-105 0-32-5-61-16-88s-27-51-50-70c-23-20-51-35-86-46s-77-17-125-17z"/><glyph unicode="" horiz-adv-x="538" d="M126 0c4 49 12 99 25 152s28 104 47 155c18 51 38 99 61 144s46 83 69 116H27v127h485V586c-21-23-45-56-70-97-26-41-50-88-73-140-23-53-43-109-60-169S281 60 277 0z"/><glyph unicode="" horiz-adv-x="363" d="M38 738c28 11 55 24 82 39 26 14 49 29 68 44h87V422H161v270c-13-7-27-14-41-20-14-7-31-14-51-21z"/><glyph unicode="" horiz-adv-x="363" d="M326 549c0-19-3-37-8-54-6-17-16-31-29-43s-31-21-52-28-47-10-78-10c-23 0-47 2-72 7-25 4-45 10-61 18l23 89c7-3 13-5 20-7 7-3 14-5 22-7 7-2 16-3 25-4s20-2 33-2c43 0 64 13 64 40 0 11-3 20-10 27-7 6-18 11-31 14s-30 4-50 5-43 1-70 1c2 17 4 37 7 59 2 21 4 43 6 64s4 40 5 59c1 18 3 33 4 44h237v-91H158c-1-7-1-16-2-27-1-12-2-22-3-29 33-1 60-4 82-10s40-14 53-25 23-24 29-39 9-32 9-51z"/><glyph unicode="" horiz-adv-x="363" d="M188 646c8 0 17 1 26 3s15 4 20 7c4 59-14 89-55 89-17 0-29-5-37-14s-12-20-12-33c0-17 4-29 13-38s24-14 45-14m-21-75c-25 0-46 3-63 10-17 6-31 15-42 26s-19 24-24 39-8 31-8 48 3 34 9 51c6 16 15 30 27 43 12 12 27 22 46 30 19 7 41 11 66 11 52 0 91-15 118-45 26-31 39-73 39-126 0-73-22-131-66-173-44-43-113-64-207-64l-5 89c51 1 90 8 115 20 25 11 44 29 55 52-7-3-15-5-26-7-11-3-23-4-34-4z"/><glyph unicode="" horiz-adv-x="363" d="M149-32c23 0 40 4 49 11s14 15 14 26c0 27-23 41-70 41h-41v82h41c15 0 28 3 38 9s15 15 15 27c0 21-15 32-44 32-15 0-31-2-46-7s-30-11-44-18l-38 79c17 11 38 20 63 28 25 7 49 11 73 11 27 0 49-3 68-9 18-6 33-14 44-24 11-11 18-23 23-36 5-14 7-28 7-43 0-14-3-27-9-40-7-13-18-25-33-37 21-10 37-23 47-40 9-17 14-35 14-56 0-18-3-35-9-51s-16-30-29-41c-13-12-31-21-52-28-22-7-49-10-80-10-11 0-23 1-35 2-13 1-25 3-37 6s-23 6-33 9c-11 3-20 6-28 10l23 89c23-9 42-15 58-18 15-3 32-4 51-4z"/><glyph unicode="" horiz-adv-x="363" d="M93-118c9 65 23 122 42 170s43 92 73 133H30v96h307v-84c-13-15-27-34-40-57-14-23-27-48-39-75s-22-57-31-88-16-63-20-95z"/><glyph unicode="Ɓ" horiz-adv-x="811" d="M15 523c0 43 13 77 40 101 26 24 59 42 99 53 39 11 82 18 128 21 46 2 89 3 128 3 49 0 94-3 134-9 39-7 73-18 101-33s50-35 65-60 22-56 22-93c0-55-27-99-80-131 44-17 74-39 90-68s24-61 24-97c0-73-26-127-79-164S555-9 450-9c-38 0-76 1-113 4-38 2-77 7-118 16v554c-27-3-47-9-60-20s-19-24-19-39c0-3 0-9 1-16 0-8 1-17 4-28L27 446c-3 9-5 21-8 36s-4 28-4 41m356-221V123c11-1 24-2 37-3s28-1 44-1c47 0 84 7 113 20s43 38 43 74c0 32-12 55-36 69-24 13-58 20-103 20m-98 119h76c48 0 82 6 103 19 21 12 31 32 31 59 0 28-11 48-32 59s-53 17-94 17c-29 0-57-1-84-3z"/><glyph unicode="ƅ" horiz-adv-x="643" d="M229 451c8 1 16 1 23 1h21c110 0 193-19 249-56 55-38 83-96 83-174C605 70 497-6 280-6c-28 0-59 2-94 5S115 7 80 15v506l-85 89c34 19 71 36 110 52s81 30 124 41m218-481c0 20-4 37-13 50s-22 23-37 31c-16 7-35 13-56 16s-45 4-70 4h-25c-5-1-11-1-17-2V125c7-1 16-1 25-1h33c22 0 43 2 62 5s36 8 51 15c14 7 25 17 34 30s13 29 13 48z"/><glyph unicode="Ɖ" horiz-adv-x="748" d="M247 127c7-1 16-1 26-1 9-1 21-1 34-1 78 0 136 20 174 59 37 39 56 94 56 163 0 73-18 128-54 165s-93 56-171 56h-33c-11-1-22-2-32-3V417h126V302H247m451 45c0-60-9-112-28-157s-45-82-79-111c-35-29-77-51-126-66S360-9 299-9c-28 0-61 1-98 4-37 2-74 7-110 14v293H10v115h81v267c36 7 74 11 113 14 39 2 72 3 100 3 59 0 113-7 162-20 48-13 89-34 124-63s61-65 80-110 28-98 28-161z"/><glyph unicode="ƍ" horiz-adv-x="593" d="M551 301c0-47-13-90-38-127-26-37-62-68-109-92 11-9 20-17 29-25 9-9 16-18 23-27 6-10 11-21 14-32 3-12 5-25 5-40 0-43-17-78-50-105s-84-41-152-41c-41 0-75 3-102 9-27 5-53 13-80 23l31 116c20-8 42-14 65-19s49-7 77-7c6 0 13 0 20 1 7 0 14 1 20 3s11 5 16 10c4 4 6 10 6 18 0 9-3 18-9 25-7 7-16 15-28 23-12 7-27 16-45 25s-38 21-61 34c-46 27-81 58-105 94-24 35-36 77-36 125 0 37 6 70 18 101 12 30 29 56 51 78 22 21 49 38 80 50s66 18 105 18 75-6 106-17 58-27 80-48 39-46 51-75 18-62 18-98m-358-8c0-14 2-27 6-39 3-13 9-24 18-35 8-11 19-22 33-32 14-11 31-21 52-32 17 7 31 15 44 26 12 11 22 22 30 35 8 12 14 25 18 38s6 26 6 39c0 41-10 72-30 91s-45 28-74 28-54-9-73-28c-20-19-30-50-30-91z"/><glyph unicode="Ƒ" horiz-adv-x="574" d="M236 17c0-69-16-121-47-154s-81-50-150-50c-9 0-22 1-38 3-17 1-33 5-49 10l20 121c10-3 18-5 25-6 6-1 15-2 28-2 21 0 35 7 43 21S80-6 80 21v672h464V562H236V417h274V286H236z"/><glyph unicode="Ɩ" horiz-adv-x="435" d="M80 693h156V213c0-31 5-56 15-73s32-26 65-26c13 0 26 1 40 4 13 3 25 6 36 9L415 8c-15-5-31-10-50-15s-43-7-71-7c-43 0-78 5-105 16-28 10-50 25-66 45-16 19-27 43-33 70-7 27-10 58-10 92z"/><glyph unicode="ƚ" horiz-adv-x="344" d="M10 448h80v304l149 24V448h90v-95h-90V203c0-13 1-25 3-36s6-20 12-27c5-7 13-13 24-18s25-8 43-9L300-10c-43 1-78 5-105 14s-49 21-64 37c-16 15-27 34-32 57-6 22-9 47-9 75v180H10z"/><glyph unicode="ƞ" horiz-adv-x="614" d="M70 508c25 7 58 14 98 21 40 6 82 9 126 9 45 0 82-6 112-17 29-12 53-29 70-50s30-47 37-76 11-62 11-98v-482H375v464c0 48-6 82-19 102s-36 30-71 30c-11 0-22 0-34-1s-23-3-32-4V0H70z"/><glyph unicode="Ƣ" horiz-adv-x="1074" d="M714 347c0-59-9-111-26-156-18-45-42-83-72-113-30-31-65-54-105-69-41-15-84-23-129-23-44 0-86 8-126 23s-75 38-105 69c-31 30-55 68-73 113-19 45-28 97-28 156s9 112 28 157 44 82 75 113 66 54 106 69 81 23 123 23c36 0 71-5 105-16s65-27 93-48c27 21 55 37 84 48s61 16 96 16c50 0 90-7 121-20 31-14 54-33 71-58s28-55 34-89c5-35 8-73 8-114V0H838v425c0 30-2 55-5 74-4 19-10 34-18 45s-18 18-29 23c-12 4-26 6-42 6-27 0-53-9-78-26 15-27 27-57 36-90 8-33 12-70 12-110m-503 0c0-34 4-65 13-92 8-27 20-51 35-70 15-20 33-35 54-46s44-16 69-16 49 5 70 16 39 26 54 46c15 19 26 43 35 70 8 27 12 58 12 92s-4 65-12 93c-9 27-20 51-35 71-15 19-33 34-54 45s-45 16-70 16-48-5-69-16-39-27-54-46c-15-20-27-44-35-71-9-28-13-59-13-92z"/><glyph unicode="Ʀ" horiz-adv-x="667" d="M296 700c99 0 176-19 229-57 53-39 80-95 80-170 0-49-11-88-33-118-23-31-55-55-97-72 14-17 31-42 52-74 21-33 42-68 64-105 21-37 42-75 62-112 19-38 35-71 47-100H525c-13 28-28 60-47 95s-38 69-58 103-39 66-58 95-36 52-49 68h-77V0H80v776h155v-78c9 1 19 1 32 2h29m-4-132c-11 0-21 0-30-1s-18-1-26-2V377h44c59 0 101 7 126 22s38 40 38 75c0 34-13 58-38 73-26 14-64 21-114 21z"/><glyph unicode="ƪ" horiz-adv-x="417" d="M408-187c-43 1-78 5-105 14s-49 21-64 37c-16 15-27 34-32 57-6 22-9 47-9 75v465c-7-4-18-8-31-13s-30-7-49-7-38 3-57 10-35 17-50 31-28 31-37 52-14 45-14 73c0 29 5 54 16 76 10 21 24 39 41 54s37 26 60 33 46 10 71 10c37 0 68-5 93-16s46-27 62-48c15-21 27-46 34-76s10-64 10-103V26c0-13 1-25 3-36s6-20 12-27c5-7 13-13 24-18s25-8 43-9M198 598c0 19-4 36-13 50s-23 21-43 21c-17 0-31-6-40-18s-14-25-14-38c0-16 5-30 15-41 9-12 22-18 39-18 10 0 20 2 30 7 10 4 19 9 26 16z"/><glyph unicode="Ʈ" horiz-adv-x="614" d="M385 21c0-27 4-47 12-61s22-21 43-21c13 0 22 1 29 2 6 1 14 3 24 6l20-121c-16-5-32-9-48-10-17-2-30-3-39-3-69 0-119 17-150 50s-47 85-47 154v543H20v133h574V560H385z"/><glyph unicode="Ʋ" horiz-adv-x="724" d="M414 701c91 0 158-30 199-89s61-149 61-268c0-59-7-111-22-156s-37-82-65-112-62-52-101-67c-40-15-84-23-133-23-47 0-89 7-124 21-35 13-65 33-88 58-24 25-42 55-53 90-12 35-18 74-18 117v421h156V285c0-31 4-56 11-77s16-38 28-51c11-13 25-22 41-27 15-6 32-9 49-9 29 0 53 5 74 16 20 11 36 26 49 45 12 19 21 43 27 70 5 27 8 58 8 92 0 36-1 68-4 96-3 27-9 51-17 70-9 19-21 33-36 43-16 10-37 15-62 15-15 0-30-2-44-6l-14 130c11 3 24 5 39 7 15 1 28 2 39 2z"/><glyph unicode="ƶ" horiz-adv-x="500" d="M465 431c-11-12-26-29-45-50-19-22-40-46-62-71h87v-88H283c-14-17-27-35-40-52-13-18-26-35-37-51h264V0H35v83c11 20 25 42 42 66 17 23 35 48 54 73H67v88h135c15 17 29 35 42 52s26 32 37 45H47v119h418z"/><glyph unicode="ƺ" horiz-adv-x="518" d="M10-102c0 24 4 44 13 61 9 16 21 30 37 41 15 11 34 21 57 29 22 7 47 14 74 21 19 5 35 9 50 13s27 9 38 14 19 12 25 20c5 8 8 18 8 30 0 11-2 20-5 29-4 8-12 15-25 21s-31 11-55 14-56 5-97 5v87c10 10 21 20 33 31 11 11 23 21 34 32s22 21 32 31c10 9 19 18 27 25H23v124h423V424c-9-9-20-19-31-30-12-11-24-23-37-35-13-13-26-25-39-37-13-13-26-24-38-35 26-6 49-13 69-21s37-18 51-31 25-28 32-45c7-18 10-40 10-65 0-31-5-57-16-78S420 9 399-5c-21-15-47-27-78-36-31-10-66-19-105-28-29-7-47-14-55-23-9-9-13-19-13-30 0-7 1-14 4-23s6-17 9-24L40-193c-7 12-13 25-20 40s-10 32-10 51z"/><glyph unicode="ƾ" horiz-adv-x="489" d="M444 144c0-52-19-91-58-118s-95-40-166-40c-47 0-85 4-116 12S51 13 39 18l25 121c25-10 51-18 78-23 27-6 53-9 79-9 27 0 47 3 58 8s17 16 17 31c0 13-6 23-18 32-13 8-35 18-67 30-22 8-42 17-60 26-19 9-35 20-48 33s-24 29-31 49-11 45-11 75v266l149 24V526h179V404H210v-14c0-17 5-31 16-41 10-11 29-21 56-31 25-9 48-19 68-28s37-20 51-33 25-28 32-46 11-40 11-67z"/><glyph unicode="ǂ" horiz-adv-x="570" d="M30 457h184v326h143V457h183V349H357v-90h183V151H357v-336H214v336H30v108h184v90H30z"/><glyph unicode="ǆ" horiz-adv-x="1095" d="M197 267c0-46 10-83 31-111s51-42 92-42c13 0 26 1 37 2s21 2 28 3v271c-9 6-21 11-36 15s-31 6-46 6c-71 0-106-48-106-144M534 17c-13-4-29-8-46-11-17-4-35-7-54-10s-39-5-58-6c-20-2-39-3-57-3-43 0-82 6-116 19s-63 31-86 55c-23 23-41 52-53 86-13 33-19 71-19 113 0 43 5 81 16 116 11 34 26 63 46 87s45 42 74 55 62 19 99 19c21 0 39-2 56-6 16-4 32-10 49-17v238l149 24m155-53l55 66 100-77 100 77 57-66-157-137m216-160c-12-13-28-31-48-54-21-23-43-48-66-75s-47-56-70-86c-24-30-46-59-65-87h254V0H630v88c14 24 31 50 51 78 19 27 40 55 62 83 21 28 43 55 64 82 21 26 41 50 59 71H642v124h418z"/><glyph unicode="Ǌ" horiz-adv-x="1281" d="M545 0c-45 79-93 158-145 235S293 385 234 454V0H80v693h127c22-22 46-49 73-81s54-66 82-102c27-37 55-74 82-113s53-77 77-113v409h155V0m535 233c0-34-4-66-11-96-8-30-21-56-40-78-19-23-45-40-77-53-33-13-74-20-123-20-45 0-84 6-117 17s-60 23-81 38l52 121c19-11 40-21 62-30s46-13 72-13c38 0 65 9 82 28s25 50 25 94v452h156z"/><glyph unicode="ǎ" horiz-adv-x="553" d="M271 104c15 0 29 0 42 1s24 2 32 3v113c-6 1-15 3-27 4s-23 2-33 2c-14 0-27-1-39-2-13-2-24-5-33-10s-17-11-22-19-8-18-8-30c0-23 8-39 24-48 15-9 37-14 64-14m-12 436c44 0 81-5 110-15s53-24 71-43c17-19 30-41 37-68s11-56 11-89V15c-21-5-51-10-89-16-38-7-84-10-138-10-34 0-65 3-92 9-28 6-52 16-72 30-20 13-35 31-46 53s-16 49-16 81c0 31 6 57 19 78 12 21 28 38 49 51s44 22 71 28c27 5 54 8 83 8 19 0 37-1 52-2 15-2 27-4 36-7v14c0 25-8 46-23 61s-42 23-80 23c-25 0-50-2-75-5-25-4-46-9-64-16L84 515c9 3 20 6 33 9s27 5 42 8c15 2 32 4 49 6 17 1 34 2 51 2M127 723l55 66 100-77 100 77 57-66-157-137z"/><glyph unicode="ǒ" horiz-adv-x="607" d="M562 264c0-41-6-79-18-113-12-35-29-64-52-88-23-25-50-44-81-57-32-13-68-20-107-20S230-7 199 6c-32 13-59 32-82 57-23 24-40 53-53 88-13 34-19 72-19 113s7 79 20 113 31 63 54 87 50 43 82 56c31 13 66 20 103 20 38 0 73-7 105-20 31-13 58-32 81-56s40-53 53-87 19-72 19-113m-152 0c0 46-9 82-27 109-19 26-45 39-79 39s-60-13-79-39c-19-27-28-63-28-109s9-82 28-109 45-41 79-41 60 14 79 41c18 27 27 63 27 109M147 723l55 66 100-77 100 77 57-66-157-137z"/><glyph unicode="ǖ" horiz-adv-x="589" d="M519 18c-25-7-58-14-98-20-40-7-82-10-126-10-45 0-82 6-111 18-30 12-54 29-71 51-17 21-30 47-37 77s-11 63-11 99v293h149V251c0-48 6-83 19-104s36-32 71-32c11 0 22 1 34 2s23 2 32 3v406h149M260 649c0-19-6-35-19-46s-28-17-45-17c-18 0-33 6-45 17-13 11-19 27-19 46s6 35 19 46c12 11 27 17 45 17 17 0 32-6 45-17s19-27 19-46m188 0c0-19-6-35-19-46s-28-17-45-17-32 6-45 17-19 27-19 46 6 35 19 46 28 17 45 17 32-6 45-17 19-27 19-46M159 820h260v-80H159z"/><glyph unicode="ǚ" horiz-adv-x="589" d="M519 18c-25-7-58-14-98-20-40-7-82-10-126-10-45 0-82 6-111 18-30 12-54 29-71 51-17 21-30 47-37 77s-11 63-11 99v293h149V251c0-48 6-83 19-104s36-32 71-32c11 0 22 1 34 2s23 2 32 3v406h149M224 653c0-19-6-35-19-46s-28-17-45-17c-18 0-33 6-45 17-13 11-19 27-19 46s6 35 19 46c12 11 27 17 45 17 17 0 32-6 45-17s19-27 19-46m265 0c0-19-6-35-19-46s-28-17-45-17-32 6-45 17-19 27-19 46 6 35 19 46 28 17 45 17 32-6 45-17 19-27 19-46M146 802l49 58 96-73 97 73 50-58-147-128z"/><glyph unicode="Ǟ" horiz-adv-x="721" d="M544 0c-7 24-15 49-24 74s-18 51-27 76H223c-9-25-17-51-26-76s-18-50-25-74H10c26 75 51 144 74 207s46 123 69 179c22 56 44 109 66 160 21 50 44 99 67 147h149c23-48 45-97 67-147 22-51 44-104 67-160 22-56 45-116 68-179S685 75 711 0M357 536c-3-10-8-24-15-41s-14-37-23-60-18-48-28-75c-11-27-21-56-32-86h197c-11 30-21 59-31 86s-19 52-28 75-17 43-24 60-12 31-16 41m-29 255c0-19-6-35-19-46s-28-17-45-17c-18 0-33 6-45 17-13 11-19 27-19 46s6 35 19 46c12 11 27 17 45 17 17 0 32-6 45-17s19-27 19-46m188 0c0-19-6-35-19-46s-28-17-45-17-32 6-45 17-19 27-19 46 6 35 19 46 28 17 45 17 32-6 45-17 19-27 19-46M227 962h260v-80H227z"/><glyph unicode="Ǣ" horiz-adv-x="994" d="M490 164H270c-14-25-29-53-46-82s-31-57-43-82H10c81 146 157 276 227 391 70 114 136 215 199 302h500V562H641V426h260V298H641V131h318V0H490m0 542c-11-15-23-34-36-55s-27-43-41-66c-15-23-29-47-42-70-14-23-27-44-38-63h157m-49 590h322V776H441z"/><glyph unicode="Ǧ" horiz-adv-x="702" d="M418 573c-73 0-125-20-157-60-33-41-49-96-49-166 0-34 4-65 12-92 8-28 20-52 36-72s36-35 60-46 52-17 84-17c17 0 32 0 45 1 12 1 23 2 32 4v241h156V23c-19-7-49-15-90-23-41-9-92-13-153-13-52 0-99 8-141 24-43 16-79 39-109 70s-53 68-69 113c-17 45-25 96-25 153 0 58 9 109 27 154s43 83 74 114 68 54 111 70c42 16 87 24 135 24 33 0 62-2 89-6 26-5 49-10 68-15 19-6 34-12 47-18 12-6 21-11 26-14l-45-125c-21 11-46 21-73 30-28 8-58 12-91 12M245 884l55 66 100-77 100 77 57-66-157-137z"/><glyph unicode="Ǫ" horiz-adv-x="790" d="M449-221c-45 0-77 8-96 25s-29 39-29 66c0 14 3 28 9 41s14 26 24 39c11 15 23 27 34 36-47 1-92 9-133 24s-77 38-108 69c-31 30-55 67-73 112s-27 97-27 156 9 112 28 157 44 82 76 113c31 31 68 54 110 69 41 15 85 23 131 23 47 0 92-8 134-23s79-38 110-69 56-68 74-113 27-98 27-157c0-69-11-128-34-175-23-48-56-88-98-120-11-8-21-15-32-22s-21-14-31-21c-11-7-21-15-31-22-11-8-21-17-31-28-9-9-15-17-20-24-5-8-8-16-8-23s2-13 7-18c4-5 12-7 23-7 6 0 13 1 22 2 8 1 18 3 29 6l12-100c-13-5-29-9-48-12s-36-4-51-4M211 347c0-34 4-65 13-92 8-27 20-51 36-70 15-20 34-35 57-46s49-16 78-16 55 5 78 16 42 26 58 46c15 19 27 43 36 70 8 27 12 58 12 92s-4 65-12 93c-9 27-21 51-36 71-16 19-35 34-58 45s-49 16-78 16-55-5-78-16-42-27-57-46c-16-20-28-44-36-71-9-28-13-59-13-92z"/><glyph unicode="Ǯ" horiz-adv-x="614" d="M178 392c13 13 26 27 41 42 14 15 28 30 43 45s29 30 42 45c13 14 25 27 35 39H56v130h485v-93c-8-10-19-23-33-39s-29-33-46-51-34-36-51-55-34-36-49-52c71-13 122-35 152-68s45-76 45-130c0-38-7-71-21-98-15-28-35-51-61-69-27-18-58-31-95-40s-78-13-123-13c-28 0-54 2-79 7-25 4-47 9-68 15S73 20 58 27c-16 7-29 13-38 18l46 124c22-11 50-23 84-34 33-11 69-17 108-17 44 0 78 7 103 21 25 13 37 36 37 68 0 19-4 35-12 48-9 13-20 23-35 31-15 7-33 13-54 16s-45 4-70 4h-49m-37 578l55 66 100-77 100 77 57-66-157-137z"/><glyph unicode="ǲ" horiz-adv-x="1215" d="M236 127c7-1 16-1 26-1 9-1 21-1 34-1 78 0 136 20 174 59 37 39 56 94 56 163 0 73-18 128-54 165s-93 56-171 56h-33c-11-1-22-2-32-3m451-218c0-60-9-112-28-157s-45-82-79-111c-35-29-77-51-126-66S349-9 288-9c-28 0-61 1-98 4-37 2-74 7-110 14v675c36 7 74 11 113 14 39 2 72 3 100 3 59 0 113-7 162-20 48-13 89-34 124-63s61-65 80-110 28-98 28-161m493 79c-12-13-28-31-48-54-21-23-43-48-66-75s-47-56-70-86c-24-30-46-59-65-87h254V0H750v88c14 24 31 50 51 78 19 27 40 55 62 83 21 28 43 55 64 82 21 26 41 50 59 71H762v124h418z"/><glyph unicode="Ƕ" horiz-adv-x="1061" d="M491 693h156V266c0-50 8-87 23-110 15-24 40-36 77-36 36 0 62 12 77 36 15 23 22 60 22 110v268h155V248c0-37-4-72-11-104s-20-60-39-83-45-42-78-55-75-20-126-20c-50 0-91 7-124 20s-60 31-79 54-33 50-41 82c-8 31-12 66-12 103v49H236V0H80v693h156V428h255z"/><glyph unicode="Ǻ" horiz-adv-x="721" d="M544 0c-7 24-15 49-24 74s-18 51-27 76H223c-9-25-17-51-26-76s-18-50-25-74H10c24 70 47 135 69 195s44 117 65 170 41 103 62 151c20 48 41 95 62 140-9 15-14 34-14 55 0 17 3 31 9 44 5 13 13 23 22 32s20 15 33 20c12 4 25 6 39 6 28 0 53-8 74-25s31-43 31-77c0-10-1-19-3-27-3-8-6-16-9-23 21-46 42-93 63-141 21-49 42-100 63-153s42-110 65-171c22-61 45-126 70-196M357 536c-3-10-8-24-15-41s-14-37-23-60-18-48-28-75c-11-27-21-56-32-86h197c-11 30-21 59-31 86-11 27-20 52-29 75s-16 43-23 60-12 31-16 41m37 175c0 12-4 21-11 28-8 7-17 10-26 10s-17-3-24-10c-8-7-12-16-12-28s4-21 12-27c7-7 15-10 24-10s18 3 26 10c7 6 11 15 11 27m62 171l-169-64-32 60 162 84z"/><glyph unicode="Ǿ" horiz-adv-x="790" d="M740 347c0-59-9-111-26-156-18-45-42-83-73-113-31-31-67-54-109-69-43-15-88-23-137-23-33 0-65 4-95 11-31 7-59 18-85 33l-58-75-85 63 61 78c-26 30-46 66-61 108-15 41-22 89-22 143 0 59 9 112 28 157s44 82 76 113c31 31 68 54 110 69 41 15 85 23 131 23 66 0 125-15 178-44l56 73 85-63-59-76c27-30 48-66 63-108s22-90 22-144m-161 0c0 48-8 89-24 123L304 145c27-15 58-22 91-22 29 0 55 5 78 16s42 26 58 46c15 19 27 43 36 70 8 27 12 58 12 92m-368 0c0-46 8-86 23-120l250 323c-26 15-56 22-89 22-29 0-55-5-78-16s-42-27-57-46c-16-20-28-44-36-71-9-28-13-59-13-92m302 528L348 736l-68 61 142 162z"/><glyph unicode="Ȃ" horiz-adv-x="721" d="M544 0c-7 24-15 49-24 74s-18 51-27 76H223c-9-25-17-51-26-76s-18-50-25-74H10c26 75 51 144 74 207s46 123 69 179c22 56 44 109 66 160 21 50 44 99 67 147h149c23-48 45-97 67-147 22-51 44-104 67-160 22-56 45-116 68-179S685 75 711 0M357 536c-3-10-8-24-15-41s-14-37-23-60-18-48-28-75c-11-27-21-56-32-86h197c-11 30-21 59-31 86s-19 52-28 75-17 43-24 60-12 31-16 41m2 380c23 0 44-4 64-11s37-18 52-31c14-13 25-30 34-49 8-20 12-42 12-67v-8H420c-2 28-9 47-20 57-11 9-25 14-41 14s-30-5-41-14c-11-10-18-29-20-57H197v8c0 25 4 47 13 67 8 19 19 36 34 49 14 13 31 24 51 31 19 7 41 11 64 11z"/><glyph unicode="Ȇ" horiz-adv-x="606" d="M80 0v693h468V562H236V426h277V298H236V131h335V0M316 916c23 0 44-4 64-11s37-18 52-31c14-13 25-30 34-49 8-20 12-42 12-67v-8H377c-2 28-9 47-20 57-11 9-25 14-41 14s-30-5-41-14c-11-10-18-29-20-57H154v8c0 25 4 47 13 67 8 19 19 36 34 49 14 13 31 24 51 31 19 7 41 11 64 11z"/><glyph unicode="Ȋ" horiz-adv-x="316" d="M80 693h156V0H80m80 916c23 0 44-4 64-11s37-18 52-31c14-13 25-30 34-49 8-20 12-42 12-67v-8H221c-2 28-9 47-20 57-11 9-25 14-41 14s-30-5-41-14c-11-10-18-29-20-57H-2v8c0 25 4 47 13 67 8 19 19 36 34 49 14 13 31 24 51 31 19 7 41 11 64 11z"/><glyph unicode="Ȏ" horiz-adv-x="790" d="M211 347c0-34 4-65 13-92 8-27 20-51 36-70 15-20 34-35 57-46s49-16 78-16 55 5 78 16 42 26 58 46c15 19 27 43 36 70 8 27 12 58 12 92s-4 65-12 93c-9 27-21 51-36 71-16 19-35 34-58 45s-49 16-78 16-55-5-78-16-42-27-57-46c-16-20-28-44-36-71-9-28-13-59-13-92m529 0c0-59-9-111-26-156-18-45-42-83-73-113-31-31-67-54-109-69-43-15-88-23-137-23-47 0-92 8-134 23s-79 38-110 69c-31 30-56 68-74 113s-27 97-27 156 9 112 28 157 44 82 76 113c31 31 68 54 110 69 41 15 85 23 131 23 47 0 92-8 134-23s79-38 110-69 56-68 74-113 27-98 27-157M395 916c23 0 44-4 64-11s37-18 52-31c14-13 25-30 34-49 8-20 12-42 12-67v-8H456c-2 28-9 47-20 57-11 9-25 14-41 14s-30-5-41-14c-11-10-18-29-20-57H233v8c0 25 4 47 13 67 8 19 19 36 34 49 14 13 31 24 51 31 19 7 41 11 64 11z"/><glyph unicode="Ȓ" horiz-adv-x="667" d="M283 701c104 0 184-18 239-55s83-95 83-173c0-49-11-88-33-118-23-31-55-55-97-72 14-17 29-37 44-59 15-23 31-46 46-70 15-25 29-50 43-76 14-27 27-53 39-78H472c-13 23-25 46-38 69s-27 46-40 68c-14 22-28 43-41 63-13 19-27 37-40 53h-77V0H80v683c34 7 69 11 106 14 36 3 68 4 97 4m9-133c-11 0-21 0-30-1s-18-1-26-2V377h44c59 0 101 7 126 22s38 40 38 75c0 34-13 58-38 73-26 14-64 21-114 21m30 348c23 0 44-4 64-11s37-18 52-31c14-13 25-30 34-49 8-20 12-42 12-67v-8H383c-2 28-9 47-20 57-11 9-25 14-41 14s-30-5-41-14c-11-10-18-29-20-57H160v8c0 25 4 47 13 67 8 19 19 36 34 49 14 13 31 24 51 31 19 7 41 11 64 11z"/><glyph unicode="Ȗ" horiz-adv-x="707" d="M351-14c-49 0-91 7-126 21-35 13-64 32-87 57-23 24-40 53-51 87-11 33-17 70-17 111v431h156V275c0-28 3-52 10-71 6-20 15-36 26-48 11-13 24-22 40-27 15-5 32-8 51-8 38 0 69 12 93 35 23 23 35 63 35 119v418h156V262c0-41-6-78-17-112s-29-63-52-87c-23-25-53-44-89-57s-79-20-128-20m3 930c23 0 44-4 64-11s37-18 52-31c14-13 25-30 34-49 8-20 12-42 12-67v-8H415c-2 28-9 47-20 57-11 9-25 14-41 14s-30-5-41-14c-11-10-18-29-20-57H192v8c0 25 4 47 13 67 8 19 19 36 34 49 14 13 31 24 51 31 19 7 41 11 64 11z"/><glyph unicode="Ȟ" horiz-adv-x="734" d="M498 693h156V0H498v294H236V0H80v693h156V428h262M212 884l55 66 100-77 100 77 57-66-157-137z"/><glyph unicode="Ȣ" horiz-adv-x="712" d="M356 433c37 0 64 11 81 32 16 21 24 48 24 81v36c-1 11-1 22-2 33s-3 22-5 35c-2 12-5 26-8 43h151c7-27 12-52 15-75s5-50 5-80c0-13-1-26-2-41-2-15-5-29-10-43-5-15-13-28-23-41s-23-25-39-34c23-11 43-24 58-37 15-14 28-28 37-43s15-31 19-47c3-17 5-33 5-49 0-68-24-121-72-159-48-39-126-58-234-58S170 5 122 44c-48 38-72 91-72 159 0 16 2 32 6 49 3 16 10 32 19 47s21 29 36 43c15 13 35 26 58 37-16 9-29 21-39 34s-17 26-22 41c-5 14-9 28-10 43-2 15-3 28-3 41 0 30 2 57 5 80s8 48 15 75h151c-3-17-6-31-8-43-2-13-3-24-4-35s-2-22-2-33c-1-11-1-23-1-36 0-33 8-60 25-81 16-21 43-32 80-32m0-318c19 0 38 2 56 6 17 3 33 9 46 17s24 18 32 30 12 26 12 43c0 33-14 58-41 73s-62 22-105 22-78-7-105-22-41-40-41-73c0-17 4-31 12-43s19-22 32-30 29-14 47-17c17-4 36-6 55-6z"/><glyph unicode="Ȧ" horiz-adv-x="721" d="M544 0c-7 24-15 49-24 74s-18 51-27 76H223c-9-25-17-51-26-76s-18-50-25-74H10c26 75 51 144 74 207s46 123 69 179c22 56 44 109 66 160 21 50 44 99 67 147h149c23-48 45-97 67-147 22-51 44-104 67-160 22-56 45-116 68-179S685 75 711 0M357 536c-3-10-8-24-15-41s-14-37-23-60-18-48-28-75c-11-27-21-56-32-86h197c-11 30-21 59-31 86s-19 52-28 75-17 43-24 60-12 31-16 41m2 224c-21 0-40 7-55 21-16 14-24 33-24 57s8 43 24 57c15 14 34 21 55 21s40-7 56-21c15-14 23-33 23-57s-8-43-23-57c-16-14-35-21-56-21z"/><glyph unicode="Ȫ" horiz-adv-x="790" d="M211 347c0-34 4-65 13-92 8-27 20-51 36-70 15-20 34-35 57-46s49-16 78-16 55 5 78 16 42 26 58 46c15 19 27 43 36 70 8 27 12 58 12 92s-4 65-12 93c-9 27-21 51-36 71-16 19-35 34-58 45s-49 16-78 16-55-5-78-16-42-27-57-46c-16-20-28-44-36-71-9-28-13-59-13-92m529 0c0-59-9-111-26-156-18-45-42-83-73-113-31-31-67-54-109-69-43-15-88-23-137-23-47 0-92 8-134 23s-79 38-110 69c-31 30-56 68-74 113s-27 97-27 156 9 112 28 157 44 82 76 113c31 31 68 54 110 69 41 15 85 23 131 23 47 0 92-8 134-23s79-38 110-69 56-68 74-113 27-98 27-157M364 791c0-19-6-35-19-46s-28-17-45-17c-18 0-33 6-45 17-13 11-19 27-19 46s6 35 19 46c12 11 27 17 45 17 17 0 32-6 45-17s19-27 19-46m188 0c0-19-6-35-19-46s-28-17-45-17-32 6-45 17-19 27-19 46 6 35 19 46 28 17 45 17 32-6 45-17 19-27 19-46M263 962h260v-80H263z"/><glyph unicode="Ȯ" horiz-adv-x="790" d="M211 347c0-34 4-65 13-92 8-27 20-51 36-70 15-20 34-35 57-46s49-16 78-16 55 5 78 16 42 26 58 46c15 19 27 43 36 70 8 27 12 58 12 92s-4 65-12 93c-9 27-21 51-36 71-16 19-35 34-58 45s-49 16-78 16-55-5-78-16-42-27-57-46c-16-20-28-44-36-71-9-28-13-59-13-92m529 0c0-59-9-111-26-156-18-45-42-83-73-113-31-31-67-54-109-69-43-15-88-23-137-23-47 0-92 8-134 23s-79 38-110 69c-31 30-56 68-74 113s-27 97-27 156 9 112 28 157 44 82 76 113c31 31 68 54 110 69 41 15 85 23 131 23 47 0 92-8 134-23s79-38 110-69 56-68 74-113 27-98 27-157M395 760c-21 0-40 7-55 21-16 14-24 33-24 57s8 43 24 57c15 14 34 21 55 21s40-7 56-21c15-14 23-33 23-57s-8-43-23-57c-16-14-35-21-56-21z"/><glyph unicode="Ȳ" horiz-adv-x="661" d="M334 408c28 47 55 95 80 142s49 95 70 143h172c-38-75-77-147-118-217s-84-140-129-211V0H253v263c-45 71-88 141-129 212S43 618 5 693h181c21-48 44-96 69-143s51-95 79-142M169 878h322V776H169z"/><glyph unicode="ȶ" horiz-adv-x="509" d="M261 134c7 3 18 8 32 13 13 5 30 8 49 8 21 0 42-4 61-11s36-18 51-32c14-14 25-31 34-52s13-45 13-72c0-29-5-55-14-76-10-22-23-40-40-54-17-15-36-25-58-32-23-7-46-11-71-11-41 0-75 8-103 25-29 16-51 39-68 68l-76-83-76 72L113 28c-1 9-1 16-1 23v606l149 24V526h179V402H261M260-3c0-21 4-38 13-52s24-21 45-21c18 0 32 6 41 18s14 25 14 39c0 17-5 31-14 43-10 11-24 17-41 17-11 0-21-2-32-6s-19-10-26-17z"/><glyph unicode="Ȼ" horiz-adv-x="661" d="M578 677c12-5 23-9 32-14s18-9 25-13l-45-126c-7 4-16 8-25 13-9 4-19 8-30 11L395 124h15c23 0 43 1 61 4s34 6 48 10c14 3 26 7 37 12s20 9 29 13l43-125c-22-13-53-25-93-36s-86-16-139-16c-8 0-16 0-23 1-8 0-16 0-23 1l-30-90-98 29 27 82c-65 23-115 64-148 121-34 57-51 130-51 217 0 57 9 109 27 154s43 83 74 114 69 54 112 70 90 24 141 24c13 0 26 0 39-1 12-1 24-3 35-4l28 85 100-28M212 350c0-43 7-82 20-117s34-62 64-81l137 417c-5 1-10 1-15 2h-16c-24 0-47-4-70-12s-44-21-61-38c-18-18-32-41-43-69s-16-62-16-102z"/><glyph unicode="ȿ" horiz-adv-x="485" d="M222 107c27 0 47 3 58 9 11 5 16 15 16 30 0 12-7 23-21 32s-36 19-66 30c-23 9-44 18-63 27s-36 21-49 34c-14 13-25 28-32 46-8 18-12 40-12 65 0 49 18 88 55 117s87 43 151 43c32 0 63-3 92-8 29-6 53-12 70-19l-26-116c-17 6-36 11-56 16-21 5-44 7-69 7-47 0-70-13-70-39 0-13 6-23 18-31 12-9 33-19 63-30 33-12 60-24 81-35 21-12 37-25 50-38 12-13 20-28 25-45s7-36 7-58c0-46-16-81-48-106S320 0 263 0h-13c-5 0-9 0-14 1 13-13 24-23 33-31 9-9 18-15 27-20 8-5 16-9 25-11 9-3 18-4 29-4 15 0 35 2 61 6l14-114c-17-5-34-8-52-9-18-2-31-3-40-3-25 0-48 4-67 12-20 8-38 19-54 32-17 13-32 27-45 43s-27 32-40 48-27 31-41 45-29 26-46 35l40 103c25-10 49-17 71-20 21-4 45-6 71-6z"/><glyph unicode="Ƀ" horiz-adv-x="672" d="M311-9c-38 0-76 1-113 4-38 2-77 7-118 16v158H10v88h70v426c32 6 67 11 105 14s73 4 106 4c44 0 85-3 122-9 37-7 68-18 95-33s48-35 63-60 22-56 22-93c0-55-27-99-80-131 44-17 74-39 90-68s24-61 24-97c0-73-26-127-79-164S416-9 311-9m-79 313v-47h94v-88h-94v-48c11-1 24-2 37-3s28-1 44-1c23 0 45 2 64 5s35 8 49 15c13 7 24 17 32 30 7 12 11 27 11 46 0 33-12 56-36 70s-58 21-103 21m-98 117h76c48 0 82 6 103 19 21 12 31 32 31 59 0 28-11 48-32 59s-53 17-94 17h-43c-15-1-29-2-41-3z"/><glyph unicode="ɇ" horiz-adv-x="597" d="M45 259c0 47 7 88 22 123 14 35 33 64 56 87s50 41 80 53c29 12 60 18 91 18 21 0 39-1 54-4l25 78 79-25-24-72c40-19 71-50 92-91s32-93 32-156c0-9 0-18-1-27s-1-18-2-26H331l-31-96c17-5 37-7 60-7 27 0 54 3 79 8s45 11 62 18l20-121c-8-4-18-8-31-12s-27-7-43-10-33-6-51-8c-19-2-37-3-56-3-15 0-30 1-43 2s-26 3-39 6l-27-84-77 26 25 78c-45 21-79 54-101 98-22 43-33 92-33 147m229 50l36 110c-3 0-5 0-7 1h-7c-17 0-32-3-45-9-13-7-23-15-32-26s-15-22-20-35-9-27-11-41m233 0c-1 15-4 30-9 45s-13 28-24 39l-27-84m-170-92c1-13 5-26 10-37 5-12 12-22 21-31l22 68z"/><glyph unicode="ɋ" horiz-adv-x="604" d="M197 259c0-95 35-143 106-143 15 0 31 2 46 6s27 9 36 15v269c-7 1-17 3-28 4s-24 1-37 1c-41 0-71-14-92-41-21-28-31-65-31-111M534 11c0-21 3-39 9-52 6-14 19-21 38-21 9 0 18 1 27 2 8 1 16 3 25 5l21-115c-8-3-17-5-27-7s-20-3-29-4c-10-1-19-2-27-3-9-1-15-1-20-1-55 0-97 13-124 39-28 26-42 69-42 129v30c-17-7-34-13-52-17s-37-6-58-6c-75 0-132 25-171 74S45 179 45 263c0 41 6 78 19 112 12 33 30 62 53 87 23 24 52 43 86 56s73 20 116 20c18 0 37-1 57-2 19-2 39-4 58-7s37-6 54-9c17-4 33-8 46-12z"/><glyph unicode="ɏ" horiz-adv-x="563" d="M461 270c-18-51-37-100-56-147s-40-94-61-140c-14-30-28-55-42-76s-29-39-46-52c-17-14-35-24-56-30-21-7-46-10-74-10-23 0-45 2-64 7-20 4-36 9-49 14L39-45c15-5 29-9 41-11s25-3 38-3c27 0 47 7 62 22 14 14 26 34 36 59-18 36-36 75-55 116s-37 85-56 132H10v93h61c-9 25-18 52-27 79s-17 55-26 84h156c5-23 12-48 20-76 7-28 16-57 25-87h132c8 30 16 59 23 87s13 53 19 76h152c-9-28-17-56-25-83-9-27-17-54-26-80h59v-93M288 150c6 16 12 34 19 55 6 20 12 42 19 65h-79c7-23 14-45 21-65 7-21 13-39 20-55z"/><glyph unicode="Ё" horiz-adv-x="606" d="M80 0v693h468V562H236V426h277V298H236V131h335V0M200 772c-21 0-39 7-54 21-15 13-23 32-23 55s8 42 23 56c15 13 33 20 54 20s39-7 54-20c15-14 23-33 23-56s-8-42-23-55c-15-14-33-21-54-21m223 0c-21 0-39 7-54 21-15 13-23 32-23 55s8 42 23 56c15 13 33 20 54 20s39-7 54-20c15-14 23-33 23-56s-8-42-23-55c-15-14-33-21-54-21z"/><glyph unicode="Ѕ" horiz-adv-x="582" d="M269 119c22 0 40 2 55 6 14 3 25 8 34 15 9 6 15 13 18 22s5 18 5 29c0 23-11 42-32 57s-58 31-110 48c-23 8-45 17-68 28-23 10-43 23-61 39-18 15-33 34-44 57-11 22-17 49-17 81s6 61 18 87c12 25 29 47 51 65s49 32 80 42c31 9 67 14 106 14 47 0 87-5 121-15s62-21 84-33l-45-123c-19 10-41 19-64 27-24 7-53 11-86 11-37 0-64-5-80-15-17-11-25-27-25-48 0-13 3-23 9-32s15-16 26-23 23-14 38-19c14-6 30-12 47-18 36-13 67-26 94-39s49-29 67-46c17-17 30-38 39-61s13-52 13-85c0-65-23-115-68-150-45-36-114-54-205-54-31 0-58 2-83 6-25 3-46 8-65 13S85 16 72 22c-14 6-26 12-35 17l44 124c21-11 46-21 77-30 30-9 67-14 111-14z"/><glyph unicode="Љ" horiz-adv-x="1130" d="M709 693V447h51c51 0 97-4 138-12 40-8 74-21 102-39 27-18 48-41 63-70s22-64 22-105c0-77-28-134-83-171C946 12 866-7 763-7c-27 0-60 2-98 5-39 3-76 9-112 18v545H383c-2-45-4-89-7-134s-9-89-16-131c-8-42-19-81-33-118-15-37-34-70-59-97-25-28-57-50-94-67S91-12 37-14L20 122c48 5 85 18 111 37s46 48 59 87c17 49 29 112 36 189s10 163 10 258m535-567c21 0 40 1 59 4s35 8 50 15c14 7 25 16 34 28s13 28 13 47c0 20-4 36-12 49s-19 23-34 30-33 12-54 15-45 4-72 4h-46V128c7-1 16-1 27-1 10-1 22-1 35-1z"/><glyph unicode="Ѝ" horiz-adv-x="756" d="M80 0v693h155V284c24 36 50 74 77 113s55 76 83 113c27 36 54 70 81 102s51 59 73 81h127V0H522v454c-59-69-114-142-166-219S256 79 211 0m135 959l142-162-68-61-165 139z"/><glyph unicode="Б" horiz-adv-x="650" d="M229 561V447h51c51 0 97-4 138-12 40-8 74-21 102-39 27-18 48-41 63-70s22-64 22-105c0-77-28-134-83-171C466 12 386-7 283-7c-28 0-60 2-95 5-36 3-72 9-108 18v677h460V561M291 126c21 0 40 1 59 4s35 8 50 15c14 7 25 16 34 28s13 28 13 47c0 20-4 36-12 49s-19 23-34 30-33 12-54 15-45 4-72 4h-46V128c7-1 16-1 27-1 10-1 22-1 35-1z"/><glyph unicode="Е" horiz-adv-x="606" d="M80 0v693h468V562H236V426h277V298H236V131h335V0z"/><glyph unicode="Й" horiz-adv-x="756" d="M80 0v693h155V284c24 36 50 74 77 113s55 76 83 113c27 36 54 70 81 102s51 59 73 81h127V0H522v454c-59-69-114-142-166-219S256 79 211 0m179 754c-21 0-42 3-61 10-20 6-38 15-54 28-16 12-29 27-39 45-11 17-17 37-19 60l103 27c5-25 14-43 27-54 12-11 26-16 43-16s32 5 45 15c12 9 21 27 26 54l102-27c-2-23-8-43-18-60-11-18-24-33-39-45-16-12-34-21-54-27-20-7-41-10-62-10z"/><glyph unicode="Н" horiz-adv-x="734" d="M498 693h156V0H498v294H236V0H80v693h156V428h262z"/><glyph unicode="С" horiz-adv-x="648" d="M396-14c-113 0-198 31-257 94S50 232 50 347c0 57 9 109 27 154s43 83 74 114 69 54 112 70 90 24 141 24c29 0 56-2 80-6 24-5 45-10 63-15 18-6 33-12 45-18s21-11 26-14l-45-126c-21 11-46 21-74 29-29 8-61 12-97 12-24 0-47-4-70-12s-44-21-61-38c-18-18-32-41-43-69s-16-62-16-102c0-32 4-62 11-89 7-28 18-52 34-72 15-20 36-36 61-47 25-12 56-18 92-18 23 0 43 1 61 4s34 6 48 10c14 3 26 7 37 12s20 9 29 13l43-125c-22-13-53-25-93-36s-86-16-139-16z"/><glyph unicode="Х" horiz-adv-x="675" d="M478 0c-19 39-40 78-63 118-23 39-50 80-80 121-9-12-21-29-35-50-15-21-29-44-43-68-15-24-28-47-41-69s-22-39-28-52H10c29 54 64 111 103 170s82 122 130 189L20 693h189l135-216 132 216h178L434 357c56-73 103-140 141-201 38-62 68-114 90-156z"/><glyph unicode="Щ" horiz-adv-x="1080" d="M80 693h156V132h196v561h156V132h196v561h156V132h120v-317H910V0H80z"/><glyph unicode="Э" horiz-adv-x="681" d="M631 347c0-64-9-119-27-164-19-45-44-83-75-112-32-29-69-51-112-64-43-14-88-21-136-21-46 0-88 5-126 15-39 10-77 25-115 44l50 125c9-4 20-9 33-14 13-6 27-11 43-16 15-5 33-10 52-13s39-5 60-5c53 0 96 14 128 42 32 27 52 68 60 122H176v132h287c-8 53-27 93-58 118s-74 38-127 38c-39 0-75-5-108-14-33-10-58-20-77-29L47 653c38 20 77 35 118 44 40 9 80 13 119 13 49 0 94-7 136-22s79-37 110-66c31-30 56-68 74-113 18-46 27-100 27-162z"/><glyph unicode="б" horiz-adv-x="601" d="M529 649c-25-5-48-9-70-11s-45-5-68-9c-20-3-40-8-60-15s-38-16-55-27c-17-12-32-27-45-44-13-18-22-40-27-66 43 21 85 31 126 31 32 0 62-5 89-16s51-27 72-48c20-21 36-48 48-79 11-32 17-69 17-111 0-45-7-85-20-118s-31-61-54-83c-23-23-50-39-80-50-31-11-63-17-98-17-93 0-159 28-199 85-40 56-60 139-60 248 0 72 7 133 21 184 14 50 35 92 63 126 28 33 63 60 104 79s89 35 144 46c22 5 44 8 67 11 22 2 45 6 68 11M201 355c-1-9-2-20-2-32-1-12-1-23-1-32 0-59 8-103 25-133 16-30 43-45 82-45 33 0 58 13 75 38s26 59 26 102c0 17-2 33-6 49-4 15-10 29-19 41s-19 22-32 29-28 11-45 11-35-2-54-6-36-11-49-22z"/><glyph unicode="е" horiz-adv-x="584" d="M45 259c0 47 7 88 22 123 14 35 33 64 56 87s50 41 81 53c30 12 61 18 93 18 75 0 134-23 177-68 43-46 65-113 65-202 0-9 0-18-1-28-1-11-1-20-2-28H198c3-31 18-55 43-73s59-27 102-27c27 0 54 3 81 8 26 5 47 11 64 18l20-121c-8-4-19-8-32-12s-28-7-44-10c-17-3-34-6-53-8s-37-3-56-3c-47 0-88 7-123 21s-64 33-87 58c-23 24-40 53-51 86s-17 69-17 108m350 57c-1 13-3 25-6 37-4 12-10 23-17 32-8 9-18 17-29 23-12 6-27 9-44 9s-31-3-43-8c-12-6-22-14-30-23s-14-20-18-32c-5-13-8-25-10-38z"/><glyph unicode="й" horiz-adv-x="619" d="M549 526V0H399c0 33 0 67 1 100s1 63 2 91 2 53 3 74 1 36 1 46c-19-27-39-55-58-83s-38-55-55-82c-18-27-35-53-50-78-16-25-30-47-42-68H70v526h149v-95c-1-31-1-58-2-83s-1-46-2-64c-1-19-1-33-1-43 40 59 77 111 111 158 33 47 66 89 98 127m-111 72c-21 0-42 3-61 10-20 6-38 15-54 28-16 12-29 27-39 45-11 17-17 37-19 60l103 27c5-25 14-43 27-54 12-11 26-16 43-16s32 5 45 15c12 9 21 27 26 54l102-27c-2-23-8-43-18-60-11-18-24-33-39-45-16-12-34-21-54-27-20-7-41-10-62-10z"/><glyph unicode="н" horiz-adv-x="593" d="M523 0H374v208H219V0H70v526h149V330h155v196h149z"/><glyph unicode="с" horiz-adv-x="500" d="M45 263c0 38 6 74 19 108 12 33 30 63 53 88s52 44 85 59 71 22 114 22c28 0 54-2 77-7s46-13 68-22l-31-119c-14 5-29 10-46 14s-35 6-56 6c-44 0-77-14-98-41-22-27-33-63-33-108 0-47 10-84 31-110 20-26 55-39 106-39 18 0 37 2 58 5s40 9 57 16l21-122c-17-7-39-14-65-19s-55-8-86-8c-48 0-89 7-124 22-35 14-63 33-85 58-23 25-39 54-49 88-11 33-16 70-16 109z"/><glyph unicode="х" horiz-adv-x="554" d="M279 366l104 160h154L357 273c40-50 76-99 109-146s59-90 78-127H384c-5 10-12 23-20 38s-17 30-27 47c-10 16-20 32-31 49-11 16-22 31-33 44-10-13-20-27-30-42-11-15-21-31-30-46-9-16-18-32-27-47s-17-30-24-43H10c8 17 19 36 33 59s29 46 46 71c16 24 33 48 51 73 18 24 36 47 53 68-30 42-60 85-90 128s-60 85-89 127h161z"/><glyph unicode="щ" horiz-adv-x="899" d="M752 0H70v526h149V122h137v404h149V122h136v404h149V122h89v-272H752z"/><glyph unicode="э" horiz-adv-x="521" d="M486 266c0-45-7-84-20-119s-32-64-55-87c-24-23-52-41-85-53-33-13-70-19-110-19-33 0-64 2-93 7S62 8 29 21l28 117c19-7 42-13 68-18s51-8 74-8c17 0 33 2 48 5s29 9 42 17c12 8 22 19 31 32 8 13 13 28 16 47H136v107h199c-5 37-20 63-43 77-24 14-53 21-87 21-25 0-48-2-68-6-21-5-42-10-64-17L45 510c30 11 59 18 87 23s55 7 81 7c41 0 78-6 111-18 33-13 62-31 86-54 24-24 43-53 56-87s20-72 20-115z"/><glyph unicode="ё" horiz-adv-x="584" d="M45 259c0 47 7 88 22 123 14 35 33 64 56 87s50 41 81 53c30 12 61 18 93 18 75 0 134-23 177-68 43-46 65-113 65-202 0-9 0-18-1-28-1-11-1-20-2-28H198c3-31 18-55 43-73s59-27 102-27c27 0 54 3 81 8 26 5 47 11 64 18l20-121c-8-4-19-8-32-12s-28-7-44-10c-17-3-34-6-53-8s-37-3-56-3c-47 0-88 7-123 21s-64 33-87 58c-23 24-40 53-51 86s-17 69-17 108m350 57c-1 13-3 25-6 37-4 12-10 23-17 32-8 9-18 17-29 23-12 6-27 9-44 9s-31-3-43-8c-12-6-22-14-30-23s-14-20-18-32c-5-13-8-25-10-38m-12 286c-21 0-39 7-54 21-15 13-23 32-23 55s8 42 23 56c15 13 33 20 54 20s39-7 54-20c15-14 23-33 23-56s-8-42-23-55c-15-14-33-21-54-21m223 0c-21 0-39 7-54 21-15 13-23 32-23 55s8 42 23 56c15 13 33 20 54 20s39-7 54-20c15-14 23-33 23-56s-8-42-23-55c-15-14-33-21-54-21z"/><glyph unicode="ѕ" horiz-adv-x="485" d="M221 107c27 0 47 3 58 8s17 16 17 31c0 12-7 23-22 32s-37 19-67 30c-23 9-44 18-63 27s-36 21-49 34-24 28-31 46-11 40-11 65c0 49 18 88 55 117s87 43 151 43c32 0 63-3 92-8 29-6 53-12 70-19l-26-116c-17 6-36 11-56 16-21 5-44 7-69 7-47 0-70-13-70-39 0-6 1-11 3-16s6-9 12-13c6-5 14-9 25-14 10-5 23-11 39-17 33-12 60-24 81-35 21-12 38-25 51-38 12-14 21-29 26-46s7-36 7-58c0-52-19-91-58-118s-95-40-166-40c-47 0-85 4-116 12S51 13 39 18l25 121c25-10 51-18 78-23 27-6 53-9 79-9z"/><glyph unicode="љ" horiz-adv-x="902" d="M306 404c-1-19-1-40-2-61-1-22-3-44-6-65-3-22-6-43-10-64-5-21-10-40-17-58-8-21-18-41-30-59-13-19-28-35-47-50s-42-27-69-36C98 1 66-6 30-9L10 115c34 7 60 16 79 29 19 12 33 28 42 47 7 17 13 36 18 58 4 22 7 45 9 70 2 24 3 49 4 74v133h395V329c9 3 22 5 37 7 15 1 32 2 51 2 29 0 56-3 83-9 27-7 50-17 71-30 21-14 37-32 50-54 12-22 18-48 18-79s-5-57-16-79c-11-23-26-41-46-55-20-15-44-25-71-32-28-7-59-11-93-11-44 0-84 2-121 7-37 4-74 11-112 20v388m223-300c27 0 49 5 65 16 15 10 23 27 23 50 0 12-3 22-8 31-5 8-13 15-22 20s-20 8-32 10c-13 2-26 3-40 3-10 0-21-1-33-2s-21-3-27-4V108c8-1 19-2 32-3s27-1 42-1z"/><glyph unicode="ѝ" horiz-adv-x="619" d="M549 526V0H399c0 33 0 67 1 100s1 63 2 91 2 53 3 74 1 36 1 46c-19-27-39-55-58-83s-38-55-55-82c-18-27-35-53-50-78-16-25-30-47-42-68H70v526h149v-95c-1-31-1-58-2-83s-1-46-2-64c-1-19-1-33-1-43 40 59 77 111 111 158 33 47 66 89 98 127M239 799l142-162-68-61-165 139z"/><glyph unicode="ѣ" horiz-adv-x="636" d="M10 526h122v226l149 25V526h192V423H281v-94c9 3 22 5 37 7 15 1 32 2 51 2 29 0 56-3 83-9 27-7 50-17 71-30 21-14 37-32 50-54 12-22 18-48 18-79s-5-57-16-79c-11-23-26-41-46-55-20-15-44-25-71-32-28-7-59-11-93-11-44 0-84 2-121 7-37 4-74 11-112 20v407H10m345-319c27 0 49 5 65 16 15 10 23 27 23 50 0 12-3 22-8 31-5 8-13 15-22 20s-20 8-32 10c-13 2-26 3-40 3-10 0-21-1-33-2s-21-3-27-4V108c8-1 19-2 32-3s27-1 42-1z"/><glyph unicode="ѵ" horiz-adv-x="597" d="M337 0H213c-33 68-67 147-103 238-37 90-70 186-100 288h158c7-25 15-53 24-84s18-62 28-93c9-31 19-62 29-91s19-55 28-78l79 237c7 19 14 36 22 51s18 27 29 37c11 9 25 17 41 22 15 5 34 7 56 7 15 0 31-1 50-4 18-3 36-9 53-16l-31-109c-10 5-18 8-25 9s-14 1-19 1c-12 0-22-3-31-9s-16-17-22-32z"/><glyph unicode="ҍ" horiz-adv-x="566" d="M10 487h62v59h149v-59h143v-93H221v-65c9 3 22 5 37 7 15 1 32 2 51 2 29 0 56-3 83-9 27-7 50-17 71-30 21-14 37-32 50-54 12-22 18-48 18-79s-5-57-16-79c-11-23-26-41-46-55-20-15-44-25-71-32-28-7-59-11-93-11-44 0-84 2-121 7-37 4-74 11-112 20v378H10m285-290c27 0 49 5 65 16 15 10 23 27 23 50 0 12-3 22-8 31-5 8-13 15-22 20s-20 8-32 10c-13 2-26 3-40 3-10 0-21-1-33-2s-21-3-27-4V108c8-1 19-2 32-3s27-1 42-1z"/><glyph unicode="ґ" horiz-adv-x="463" d="M443 404H219V0H70v526h246v124h127z"/><glyph unicode="ҕ" horiz-adv-x="569" d="M468 404H219v-89c12 2 25 4 40 5 14 1 27 1 38 1 35 0 67-5 96-15 29-11 54-27 75-48s37-48 49-80c11-33 17-71 17-116 0-44-6-82-17-113-12-31-28-57-49-77s-46-35-75-44-60-14-95-14c-19 0-38 1-58 3l8 112c8-1 16-1 24-1 8-1 16-1 23-1 36 0 62 12 79 36 17 23 25 55 25 96 0 29-3 52-9 71s-15 34-26 45-25 19-41 24-34 7-53 7h-12c-5-1-10-1-15-1-5-1-10-1-14-2-5-1-8-1-10-1V0H70v526h398z"/><glyph unicode="ҙ" horiz-adv-x="495" d="M45 509c23 9 50 16 81 21s64 8 100 8c27 0 54-2 80-7s49-14 70-25c20-12 36-27 49-46 12-19 18-43 18-72 0-26-6-48-18-66-12-19-29-34-51-46 29-13 51-29 65-50s21-47 21-79c0-24-4-45-12-63-9-18-20-33-35-46s-32-23-51-30c-20-8-41-14-64-17-3-5-5-11-8-16-3-6-5-11-6-15 21-11 36-23 44-38s12-30 12-45c0-32-13-56-38-73s-59-25-100-25c-15 0-29 1-44 4-15 2-29 5-44 9l18 87c5-1 13-3 26-6 12-3 24-5 36-5 9 0 18 2 25 6 7 3 10 10 11 19 1 8-2 15-9 22s-19 12-34 15l-12 3c3 7 6 16 10 26 4 9 8 19 12 28-31 2-61 6-90 12-30 6-56 14-77 23l27 116c14-5 36-12 65-19s61-11 98-11c60 0 90 17 90 50 0 11-2 21-7 28s-11 12-18 16c-8 4-17 7-27 8s-20 2-30 2H111v106h118c24 0 41 5 51 15 9 9 14 20 14 33s-5 24-16 35c-11 10-32 15-61 15s-57-3-83-8-47-10-63-15z"/><glyph unicode="ҝ" horiz-adv-x="682" d="M336 439V328c29 34 55 67 80 100 25 32 48 65 71 98h177c-15-20-32-41-50-62-19-22-38-43-57-64-20-21-39-42-58-61l-51-51c20-19 41-41 63-65 21-24 42-49 62-74 20-26 39-52 56-77 17-26 31-50 43-72H501c-10 16-21 34-34 54s-26 40-40 61c-15 21-30 41-45 61-15 19-31 37-46 52V116h-77v118h-40V0H70v526h149V319h40v120z"/><glyph unicode="ҡ" horiz-adv-x="657" d="M20 526h274V329c15 16 30 33 46 51 15 17 30 35 45 53 15 17 29 34 42 50s25 30 35 43h177c-15-18-31-38-50-59s-38-43-58-64-39-42-58-62c-19-21-35-38-50-53 20-19 41-41 63-65 21-24 42-49 62-74 20-26 39-52 56-77 17-26 31-50 43-72H476c-11 17-23 36-37 57-14 20-29 40-45 60s-32 39-49 58-34 35-51 49V0H145v416H20z"/><glyph unicode="ҥ" horiz-adv-x="653" d="M643 416H523V0H374v208H219V0H70v526h149V330h155v196h269z"/><glyph unicode="ҩ" horiz-adv-x="633" d="M315 540c26 0 50-2 72-6 22-5 43-12 64-21l-29-111c-13 5-28 10-43 14-15 3-33 5-52 5-29 0-54-4-73-13-20-9-36-21-48-36s-20-32-25-51-8-39-8-59c0-40 7-73 22-100s38-47 70-58c-2 9-3 18-4 27s-1 18-1 27c0 71 15 123 46 158 31 34 76 51 135 51 55 0 96-14 123-43 26-29 39-69 39-120 0-21-3-41-9-61-6-21-15-40-28-58s-30-34-50-48c-21-14-45-25-74-33 16-10 36-18 61-25 24-7 54-13 91-17l-18-112c-39 2-74 7-103 15-29 7-55 17-77 30s-41 27-57 44c-16 16-30 34-43 53-83 6-146 32-188 78S45 181 45 264c0 34 5 68 16 101s27 62 50 88c22 26 50 47 84 63s74 24 120 24m64-385c0-11 0-22 1-31s2-19 4-28c23 3 41 9 54 17s24 17 31 28c7 10 12 21 15 32 2 11 3 21 3 30 0 19-5 34-15 43s-21 14-34 14c-18 0-32-7-43-22s-16-42-16-83z"/><glyph unicode="ҭ" horiz-adv-x="505" d="M495 404H327V122h97v-267H297V0H178v404H10v122h485z"/><glyph unicode="ұ" horiz-adv-x="549" d="M539 520c-24-83-49-159-76-228-27-70-56-136-86-199h88V0H350v-185H201V0H82v93h93c-30 63-59 129-87 198-29 69-55 146-78 229h159c7-29 14-59 23-90 8-31 17-62 27-92 9-30 19-59 29-87 9-28 19-54 28-78 9 24 18 50 28 78 9 28 19 57 28 87s18 61 27 92c8 31 15 61 21 90z"/><glyph unicode="ҵ" horiz-adv-x="697" d="M588 122h89v-272H550V0H115v403H10v123h359V403H264V122h175v404h149z"/><glyph unicode="ҹ" horiz-adv-x="562" d="M319 374v-85c9 1 17 1 24 2 7 0 14 1 20 2v233h149V0H363v173c-7-1-15-2-22-3s-15-1-22-2V83h-77v83c-34 1-64 6-90 13-27 7-49 18-67 33s-32 34-41 57-14 52-14 86v171h149V356c0-21 5-36 14-46s26-17 49-20v84z"/><glyph unicode="ҽ" horiz-adv-x="708" d="M127 393c0-15 3-27 9-37s19-18 40-24c7 35 18 65 35 91 16 26 35 48 57 65s46 30 73 39c26 9 53 13 80 13 75 0 134-23 177-68 43-46 65-113 65-202 0-9 0-18-1-28-1-11-1-20-2-28H322c3-31 18-55 43-73s59-27 102-27c27 0 54 3 81 8 26 5 47 11 64 18l20-121c-8-4-19-8-32-12s-28-7-44-10c-17-3-34-6-53-8s-37-3-56-3c-44 0-83 6-116 18s-61 29-84 51c-23 21-41 47-54 76s-20 61-23 96c-57 9-97 26-122 51s-38 65-38 118c0 8 1 17 2 28 1 10 4 21 7 32l113-14c-3-9-4-19-4-29-1-10-1-17-1-20m392-77c-1 13-3 25-6 37-4 12-10 23-17 32-8 9-18 17-29 23-12 6-27 9-44 9s-31-3-43-8c-12-6-22-14-30-23s-14-20-18-32c-5-13-8-25-10-38z"/><glyph unicode="Ӂ" horiz-adv-x="983" d="M10 0c19 34 40 68 62 102s45 67 68 99c23 31 46 61 71 89 24 27 48 52 73 74-28 29-54 57-78 84s-47 54-68 81c-22 27-43 54-64 81s-42 54-63 83h188c20-28 39-54 57-77 17-23 35-46 52-68s34-44 51-65 36-44 56-68v278h152V415c20 25 39 48 58 71 18 22 36 44 53 66s35 45 52 68 35 47 53 73h187c-24-31-46-61-67-88s-43-54-64-80-43-52-65-78c-23-26-47-53-74-82 54-50 103-106 148-168 45-63 86-128 125-197H799c-21 31-40 60-58 87s-36 52-54 77-37 49-56 73c-19 23-41 48-64 73V0H415v310c-24-28-46-54-65-78s-38-48-55-72c-18-24-36-49-54-74-18-26-37-55-58-86m307 751c-21 0-42 3-61 10-20 6-38 15-54 28-16 12-29 27-39 45-11 17-17 37-19 60l103 27c5-25 14-43 27-54 12-11 26-16 43-16s32 5 45 15c12 9 21 27 26 54l102-27c-2-23-8-43-18-60-11-18-24-33-39-45-16-12-34-21-54-27-20-7-41-10-62-10z"/><glyph unicode="Ӆ" horiz-adv-x="830" d="M373 561c-2-45-4-89-7-134s-9-89-16-131c-8-42-19-81-33-118-15-37-34-70-59-97-25-28-57-50-94-67S81-12 27-14L10 122c48 5 85 18 111 37s46 48 59 87c17 49 29 112 36 189s10 163 10 258h473V132h110c1-53-9-108-31-165s-56-109-102-156l-101 64c18 23 33 45 44 64s20 39 27 61H543v561z"/><glyph unicode="Ӊ" horiz-adv-x="786" d="M498 693h156V132h111c1-53-9-108-31-165s-56-109-102-156l-101 64c18 23 33 45 44 64s20 39 27 61H498v294H236V0H80v693h156V428h262z"/><glyph unicode="Ӎ" horiz-adv-x="952" d="M264 693c12-22 26-49 42-81 15-33 32-68 49-105 17-38 33-77 50-116s32-76 47-111c15 35 30 72 47 111s34 78 51 116c17 37 33 72 49 105 15 32 29 59 41 81h142c5-37 10-78 15-123s9-92 13-141 8-98 11-148c3-51 6-100 9-149h111c1-53-9-108-31-165s-56-109-102-156l-101 64c18 23 33 45 44 64s20 39 27 61h-93c-2 67-5 141-8 220s-8 159-15 240c-12-28-25-59-40-93s-29-68-43-102c-15-34-29-66-42-97s-25-58-34-80H394c-9 22-21 49-34 80s-27 63-41 97c-15 34-29 68-44 102s-28 65-40 93c-7-81-12-161-15-240s-6-153-8-220H60c3 55 6 113 10 175 3 62 7 124 12 186 4 61 9 121 15 178 5 57 11 108 18 154z"/><glyph unicode="ӑ" horiz-adv-x="553" d="M271 104c15 0 29 0 42 1s24 2 32 3v113c-6 1-15 3-27 4s-23 2-33 2c-14 0-27-1-39-2-13-2-24-5-33-10s-17-11-22-19-8-18-8-30c0-23 8-39 24-48 15-9 37-14 64-14m-12 436c44 0 81-5 110-15s53-24 71-43c17-19 30-41 37-68s11-56 11-89V15c-21-5-51-10-89-16-38-7-84-10-138-10-34 0-65 3-92 9-28 6-52 16-72 30-20 13-35 31-46 53s-16 49-16 81c0 31 6 57 19 78 12 21 28 38 49 51s44 22 71 28c27 5 54 8 83 8 19 0 37-1 52-2 15-2 27-4 36-7v14c0 25-8 46-23 61s-42 23-80 23c-25 0-50-2-75-5-25-4-46-9-64-16L84 515c9 3 20 6 33 9s27 5 42 8c15 2 32 4 49 6 17 1 34 2 51 2m18 58c-21 0-42 3-61 10-20 6-38 15-54 28-16 12-29 27-39 45-11 17-17 37-19 60l103 27c5-25 14-43 27-54 12-11 26-16 43-16s32 5 45 15c12 9 21 27 26 54l102-27c-2-23-8-43-18-60-11-18-24-33-39-45-16-12-34-21-54-27-20-7-41-10-62-10z"/><glyph unicode="ӕ" horiz-adv-x="874" d="M259 540c21 0 39-1 56-4s32-7 45-12c13-6 24-13 35-22s21-20 30-33c23 25 48 44 77 55s59 16 92 16c36 0 68-6 97-17 29-12 53-29 74-52s37-51 48-84c11-34 16-73 16-117 0-9 0-18-1-28-1-11-1-20-2-28H488c3-31 18-55 43-73s59-27 102-27c27 0 54 3 81 8 26 5 47 11 64 18l20-121c-8-4-19-8-32-12s-28-7-44-10c-17-3-34-6-53-8s-37-3-56-3c-39 0-74 4-103 13s-54 20-75 34C385 4 327-11 261-11c-34 0-65 3-92 9-28 6-52 16-72 30-20 13-35 31-46 53s-16 49-16 81c0 31 6 57 19 78 12 21 28 38 49 51s44 22 71 28c27 5 54 8 83 8 19 0 37-1 52-2 15-2 27-4 36-7v17c0 25-8 45-23 60-15 14-42 21-80 21-25 0-50-2-75-5-25-4-46-9-64-16L84 515c9 3 20 6 33 9s27 5 42 8c15 2 32 4 49 6 17 1 34 2 51 2m12-436c21 0 40 1 57 4 17 2 31 6 44 11-9 24-16 44-19 59s-5 30-6 45c-9 1-20 2-33 3s-22 1-29 1c-14 0-27-1-39-2-13-2-24-5-33-10s-17-11-22-19-8-18-8-30c0-23 8-39 24-48 15-9 37-14 64-14m413 212c-1 13-3 25-6 37-4 12-10 23-17 32-8 9-18 17-29 23-12 6-27 9-44 9s-31-3-43-8c-12-6-22-14-30-23s-14-20-18-32c-5-13-8-25-10-38z"/><glyph unicode="ә" horiz-adv-x="584" d="M539 267c0-47-7-87-21-122-15-35-34-65-57-88-23-24-50-42-80-53-31-12-62-18-94-18-75 0-134 23-177 68S45 167 45 256c0 9 0 18 1 29 1 10 1 19 2 27h338c-3 31-18 55-43 73s-59 27-102 27c-28 0-55-2-81-7s-47-12-64-19L76 507c8 4 19 8 32 12s28 8 45 11c16 3 33 5 52 7s37 3 56 3c47 0 89-7 124-21s64-33 87-57c23-25 40-54 51-87s16-69 16-108m-350-57c1-13 3-25 7-37 3-12 9-23 16-32 7-10 17-18 29-23 12-6 27-9 44-9s31 3 43 9c12 5 22 13 30 22s14 20 19 32c4 12 7 25 9 38z"/><glyph unicode="ӝ" horiz-adv-x="849" d="M10 0c33 54 68 104 103 149s73 89 113 132c-42 43-80 86-114 128-35 41-65 80-92 117h174c17-25 38-53 63-85 24-33 56-74 95-123v208h145V318c41 49 73 90 97 123s45 61 62 85h172c-25-38-54-77-87-117-33-41-72-83-117-127 24-25 46-49 65-71 19-23 37-45 54-67s33-45 48-68c15-24 31-49 48-76H673c-50 75-109 155-176 238V0H352v238c-34-45-66-88-97-128S198 33 176 0m137 602c-21 0-39 7-54 21-15 13-23 32-23 55s8 42 23 56c15 13 33 20 54 20s39-7 54-20c15-14 23-33 23-56s-8-42-23-55c-15-14-33-21-54-21m223 0c-21 0-39 7-54 21-15 13-23 32-23 55s8 42 23 56c15 13 33 20 54 20s39-7 54-20c15-14 23-33 23-56s-8-42-23-55c-15-14-33-21-54-21z"/><glyph unicode="ӡ" horiz-adv-x="515" d="M124 230c11 12 22 26 35 41s25 30 38 45c12 15 24 31 36 46s23 28 32 40H31v124h423V424c-8-11-18-23-29-37s-24-29-37-44c-13-16-27-33-41-50-15-17-29-35-44-53 24-7 47-16 68-27 21-12 39-26 54-43s28-37 37-59c9-23 13-48 13-76 0-73-23-128-70-165s-112-55-195-55c-19 0-38 1-57 3s-38 5-56 9c-19 3-36 8-51 13-16 5-30 10-41 15L38-26c11-5 23-9 36-13s27-7 42-10c14-3 28-5 43-6 14-1 28-2 41-2 41 0 73 9 94 26s31 41 31 72c0 35-13 60-38 77s-62 25-109 25h-54z"/><glyph unicode="ӥ" horiz-adv-x="619" d="M549 526V0H399c0 33 0 67 1 100s1 63 2 91 2 53 3 74 1 36 1 46c-19-27-39-55-58-83s-38-55-55-82c-18-27-35-53-50-78-16-25-30-47-42-68H70v526h149v-95c-1-31-1-58-2-83s-1-46-2-64c-1-19-1-33-1-43 40 59 77 111 111 158 33 47 66 89 98 127m-217 76c-21 0-39 7-54 21-15 13-23 32-23 55s8 42 23 56c15 13 33 20 54 20s39-7 54-20c15-14 23-33 23-56s-8-42-23-55c-15-14-33-21-54-21m223 0c-21 0-39 7-54 21-15 13-23 32-23 55s8 42 23 56c15 13 33 20 54 20s39-7 54-20c15-14 23-33 23-56s-8-42-23-55c-15-14-33-21-54-21z"/><glyph unicode="ө" horiz-adv-x="607" d="M562 264c0-41-6-79-18-113-12-35-29-64-52-88-23-25-50-44-81-57-32-13-68-20-107-20-42 0-79 7-111 22-33 15-60 35-82 60s-38 55-49 89c-11 33-17 69-17 107 0 41 7 79 20 113s31 63 54 87 50 43 82 56c31 13 66 20 103 20 42 0 79-7 111-22s59-36 81-61c21-25 38-55 49-88s17-68 17-105M304 106c30 0 55 10 74 30 19 19 31 47 36 83H193c6-34 19-61 38-82s43-31 73-31m0 314c-30 0-55-9-74-28s-32-47-38-83h222c-3 13-7 27-12 40s-12 25-21 36c-9 10-19 18-32 25s-28 10-45 10z"/><glyph unicode="ӭ" horiz-adv-x="521" d="M486 266c0-45-7-84-20-119s-32-64-55-87c-24-23-52-41-85-53-33-13-70-19-110-19-33 0-64 2-93 7S62 8 29 21l28 117c19-7 42-13 68-18s51-8 74-8c17 0 33 2 48 5s29 9 42 17c12 8 22 19 31 32 8 13 13 28 16 47H136v107h199c-5 37-20 63-43 77-24 14-53 21-87 21-25 0-48-2-68-6-21-5-42-10-64-17L45 510c30 11 59 18 87 23s55 7 81 7c41 0 78-6 111-18 33-13 62-31 86-54 24-24 43-53 56-87s20-72 20-115M135 602c-21 0-39 7-54 21-15 13-23 32-23 55s8 42 23 56c15 13 33 20 54 20s39-7 54-20c15-14 23-33 23-56s-8-42-23-55c-15-14-33-21-54-21m223 0c-21 0-39 7-54 21-15 13-23 32-23 55s8 42 23 56c15 13 33 20 54 20s39-7 54-20c15-14 23-33 23-56s-8-42-23-55c-15-14-33-21-54-21z"/><glyph unicode="ӱ" horiz-adv-x="547" d="M537 526c-30-101-61-196-94-285S375 66 336-17c-14-30-28-55-42-76s-29-39-46-52c-17-14-35-24-56-30-21-7-46-10-74-10-23 0-45 2-64 7-20 4-36 9-49 14L31-45c15-5 29-9 41-11s25-3 38-3c27 0 47 7 62 22 14 14 26 34 36 59-34 67-68 142-102 225S40 423 10 526h158c7-26 15-54 24-84 9-31 18-61 28-92s20-62 31-91c10-29 20-56 29-80 9 24 18 51 27 80s19 60 28 91 17 61 26 92c8 30 15 58 22 84m-223 76c-21 0-39 7-54 21-15 13-23 32-23 55s8 42 23 56c15 13 33 20 54 20s39-7 54-20c15-14 23-33 23-56s-8-42-23-55c-15-14-33-21-54-21m223 0c-21 0-39 7-54 21-15 13-23 32-23 55s8 42 23 56c15 13 33 20 54 20s39-7 54-20c15-14 23-33 23-56s-8-42-23-55c-15-14-33-21-54-21z"/><glyph unicode="ӵ" horiz-adv-x="568" d="M194 526V356c0-25 8-43 25-53 16-10 39-15 68-15 6 0 15 1 28 2s24 2 34 3v233h149V0H349v173c-13-2-28-4-43-5-16-1-28-2-36-2-34 0-65 3-92 10-28 6-52 16-71 31-20 14-35 33-46 58-11 24-16 54-16 90v171m116 76c-21 0-39 7-54 21-15 13-23 32-23 55s8 42 23 56c15 13 33 20 54 20s39-7 54-20c15-14 23-33 23-56s-8-42-23-55c-15-14-33-21-54-21m223 0c-21 0-39 7-54 21-15 13-23 32-23 55s8 42 23 56c15 13 33 20 54 20s39-7 54-20c15-14 23-33 23-56s-8-42-23-55c-15-14-33-21-54-21z"/><glyph unicode="ӹ" horiz-adv-x="824" d="M754 0H605v526h149M293 104c27 0 49 5 65 16 15 10 23 27 23 50 0 12-3 22-8 31-5 8-13 15-22 20s-20 8-32 10c-13 2-26 3-40 3-10 0-21-1-33-2s-21-3-27-4V108c8-1 19-2 32-3s27-1 42-1m-74 235c9 3 22 5 37 7 15 1 32 2 51 2 31 0 60-4 87-11s50-18 70-33 36-34 48-57c11-23 17-50 17-81s-5-57-16-79c-11-23-26-41-46-55-20-15-44-25-71-32-28-7-59-11-93-11-44 0-84 2-121 7-37 4-74 11-112 20v510h149m87 76c-21 0-39 7-54 21-15 13-23 32-23 55s8 42 23 56c15 13 33 20 54 20s39-7 54-20c15-14 23-33 23-56s-8-42-23-55c-15-14-33-21-54-21m223 0c-21 0-39 7-54 21-15 13-23 32-23 55s8 42 23 56c15 13 33 20 54 20s39-7 54-20c15-14 23-33 23-56s-8-42-23-55c-15-14-33-21-54-21z"/><glyph unicode="₮" horiz-adv-x="568" d="M556 693V570H362v-97l81 38 41-87-122-57v-78l81 38 43-91-124-58V0H206v105l-73-34-43 91 116 54v78l-75-35-41 87 116 54v170H12v123z"/><glyph unicode="Δ" horiz-adv-x="693" d="M10 0c23 73 46 141 68 202s44 120 66 175c21 55 43 108 66 159 22 51 46 104 71 157h130c25-53 49-106 72-157 23-52 45-105 67-160s44-114 66-175c21-61 44-128 67-201M483 130c-29 83-55 158-78 225-24 67-44 118-61 153-8-18-17-40-27-66s-21-55-32-88c-12-33-24-68-37-105-13-38-27-78-41-119z"/><glyph unicode="Θ" horiz-adv-x="790" d="M211 347c0-34 4-65 13-92 8-27 20-51 36-70 15-20 34-35 57-46s49-16 78-16 55 5 78 16 42 26 58 46c15 19 27 43 36 70 8 27 12 58 12 92s-4 65-12 93c-9 27-21 51-36 71-16 19-35 34-58 45s-49 16-78 16-55-5-78-16-42-27-57-46c-16-20-28-44-36-71-9-28-13-59-13-92m529 0c0-59-9-111-26-156-18-45-42-83-73-113-31-31-67-54-109-69-43-15-88-23-137-23-47 0-92 8-134 23s-79 38-110 69c-31 30-56 68-74 113s-27 97-27 156 9 112 28 157 44 82 76 113c31 31 68 54 110 69 41 15 85 23 131 23 47 0 92-8 134-23s79-38 110-69 56-68 74-113 27-98 27-157m-456 63h223V286H284z"/></font>
</svg>
