<svg xmlns="http://www.w3.org/2000/svg" viewBox="0 0 90 90"><path d="M70.207 58.307l.838-2.876 3.904-5.04c0-.01 0-.02.01-.03.01-.01.02-.02.02-.04l3.03-8.8c.01-.03 0-.07 0-.11 0-.01.01-.02 0-.03l-4.45-16.56 1.31-6.58 2.9-8.7v-.1c0-.04-.01-.07-.03-.1-.01-.01-.01-.02-.01-.03l-2.36-3c-.01 0-.01 0-.01-.004v-.01c-.01-.01-.02-.005-.03-.012-.04-.03-.08-.04-.12-.05-.01 0-.02-.01-.03-.01H74.1c-.06 0-.11.02-.152.06 0 .01-.01 0-.01.01l-5.53 4.84h-2.69c-.05 0-.096.018-.135.043h-.01l-3.78 2.658c-.018.015-.018.04-.03.055-.01.01-.034.01-.043.026l-3.685 6.437c-.03.056-.044.124-.025.19l.6 2.175-.61 4.21-2.595 8.4-8.88 8.92c-.005 0-.006.01-.01.01-.003.006-.007.006-.01.01l-6.31 8.024-8.132 9.69c-.005.006-.003.014-.007.02 0 .008-.01.01-.02.02l-3.82 6.934v.03s-.02.02-.02.03l-1.46 6.05-6.646 2.17-5.37.65c-.006 0-.01.004-.01.005-.006 0-.01-.005-.01-.004l-5.6 1.16c-.016.006-.025.02-.04.027-.008 0-.018-.004-.026 0L5.86 80.8c-.1.05-.15.163-.127.27s.114.19.225.197l8.306.542h.04l9.518-.98 10.75.97.642.19.427.12c.02 0 .05.01.07.01l11.59.16 10.21.13h.01c.04 0 .08-.01.11-.03l.67-.33c.066-.03.11-.09.13-.15.02-.07.016-.14-.02-.2l-1.533-2.74c-.037-.07-.102-.116-.176-.13l-2.04-.34-.6-1.506c-.03-.076-.09-.13-.164-.15l-3.39-.973 2.44-5.145 4.203-3.397 4.153-5.08 4.047 15.02 1.35 4.55c0 .007.01.01.01.017.002.006 0 .015.004.02.01.02.03.03.04.048.01.02.02.03.04.04.02.02.05.03.078.04.016.01.025.02.04.02h.013l4.773.42h.04l3.155-.208c.084-.007.16-.06.2-.135.04-.077.04-.17-.006-.245l-1.54-2.53c-.028-.043-.07-.072-.115-.093-.004 0-.006-.01-.01-.01l-2.11-.8-1.638-3.59.538-16.517zM49.91 75.94l-.138.29-2.538 5.353-3.644-4.406-.24-.29 8.78-5.626-2.22 4.68zm-34.935 2.404l4.2-.507-4.572 3.194.322-2.32.05-.36zm8.945 1.997l-2.73-2.3 9.168 2.59 1.588.45-8.026-.73zm34.62-53.61l.522-3.6 1.538 1.1 3.645 2.62-3.95-.08-1.756-.03zm3.457-12.29l.335.35 1.616 1.7 2.734 6.09-.92 2.19-.826 1.97-4.31-3.09-1.535-1.1-.56-2.04L62 14.43zM74.1 6.8l.637.61-4.06 2.384L74.1 6.8zm-3.523 48.45l-.772 2.65-7.682-4.206 10.52-5.533-1.24 4.27-.826 2.83zM27.5 75.378l1.133-.26.922-.21 3.75 5.254-5.395-4.448-.41-.338zm2.47-.75l2.045-2.825 2.98-4.114-.598 13.14-4.426-6.21zm8.56-14.555l-3.27 6.292-2.62-4.11 5.89-2.182zM59.837 40.15l-.732.016-2.81-4.2L66.43 40.01l-6.594.14zm1.354 12.78l-7.87-7.872 5.49-4.195 2.38 12.067zm-1.91-12.267l.51-.01 7.49-.16-5.58 12.38-1.74-8.83-.67-3.38zm6.03-13.533l1.56-3.69.33-.77 2.66-5.96 3.21 8.118-5.31 14.488-.283-1.444-2.144-10.74zm1.98-13.42l1.27-1.963 1.33 1.24.62.574-.75 2.09-2.01-1.59-.436-.34zm1.64-2.304l5.33-3.13-3.49 4.838-1.83-1.707zm-.42 3.9l1.06.834-1.09 2.455-1.5 3.36-1.46-3.25-1.04-2.305 2.51-2.305 1.53 1.21zM67.33 39.83l-11.225-4.478 8.78-7.772.983 4.926 1.462 7.324zm-11.6-3.806l2.902 4.338-5.247 4.015 2.328-8.3.016-.053zm-8.818 27.98l-7.5-4.467 4.817-6.843 2.68 11.31zm.404-.465l-2.693-11.35 7.854-6.46-5.16 17.8zm-8.166-3.58l6.214 3.7 1.238.73-10.858 2.12 3.41-6.56zm3.684 16.64l-6.624 4.26 11.106-15.94 5.03 5.6-9.513 6.08zm5.058-13.26l5.175-17.84 8.15 8.15-13.473 10.21.15-.52zM72.68 47.57l-10.56 5.555 1.438-3.183 4.158-9.216 1.537 2.12 3.425 4.723zm-32.15 5.095l.392-.033 2.91-.246-4.938 7.015-1.592.59-4.237 1.57 7.464-8.89zm28.96 5.626L64.27 62l-2.266-7.81 7.486 4.1zm-.506 20.77l1.02.32.335.11.45 1.13.52 1.29-3.95-.34 1.61-2.49zm1.463-.07l-1.292-.4.394-2.83 1.27 2.81-.38.43zm-1.275-4.15l-.38 2.73-4.372-15.06 5.273-3.74-.52 16.08zm2.258-20.72l1.71-5.87.58.88.726 1.1-3.018 3.9zm3.253-4.44l-1.323-2.01 3.683-4.84-2.36 6.85zm2.803-8.26l-4.43 5.83-3.627-5-1.48-2.05 5.33-14.54 4.22 15.73-.03.03zM73.24 23.94l-3.112-7.882.747-2.073 3.506 4.247-1.14 5.708zm1.315-6.282l-3.45-4.18.01-.016 4.08-5.644 2.068 1.713-2.708 8.13zm.847-10.317l.01-.19.472.6-.482-.4zm-8.422 5.93l-.85-1.65h1.912l-1.067 1.66zm-1.35-1.53l1.012 1.98-1.875 1.73-.6.55-1.844-1.93 3.305-2.32zm-7.196 15.49l1.884.04 4.08.09-7.995 7.08-.27.24 2.298-7.44zM52.722 44.9l-2.55 2.094-5.346 4.39.943-3.065 1.16-3.78 8.2-8.25-2.41 8.6zm-8.57 6.97l-1.866.16-1.333.11 5.122-6.514-1.922 6.248zM32.28 62.617l.543.854 2.156 3.39-5.2 7.17-1.08-4.93 3.57-6.48zm-3.848 7.557l.933 4.262-2.077.475 1.144-4.73zm-1.535 5.352L33.537 81l-1.68-.474-10.866-3.07 5.91-1.93zm-12.44 2.91l-.276 2-.1.766-.37-.164-3.74-1.66 4.5-.948zM6.852 80.83l2.306-1.25 3.728 1.644-6.034-.394zm8.37.386l4.928-3.402 3.06 2.58-7.988.822zm20.3-14.143l11.21-2.188-10.8 15.504-.752 1.08-.307-.09.65-14.31zm.412 14.568l6.994-4.48 3.828 4.64-10.822-.15zm21.886.1l-.375.19-9.76-.12 1.734-3.66 5 .86c.01.01.02.01.04.01h.01l1.99.34 1.34 2.407zm-4.203-4.43l.44 1.11-4.415-.74.487-1.03.14-.3 3.34.97zM56.787 67l-4.03 3.245-5.097-5.68L59.362 55.7l1.97-1.492-.15 6.5-.023.938L56.78 67zm4.87-5.293l.084-3.57.07-2.814 6.8 23.407-.07.107-1.52 2.34-1.19-4.02-4.16-15.45zM71.865 81.92l-.96-2.372.145.01 2.123.125 1.255 2.07-2.563.17zm-.7-2.857l-.108-.005.113-.126.022-.026.5.188-.528-.03z"/></svg>