<svg xmlns="http://www.w3.org/2000/svg" viewBox="0 0 90 90"><path d="M70.207 58.307l.838-2.876 3.904-5.04c0-.01 0-.02.01-.03.01-.013.02-.022.02-.04l3.03-8.8c.014-.036.003-.072 0-.11 0-.012.01-.022.007-.035L73.57 24.818l1.315-6.583 2.9-8.703c.003-.013 0-.025 0-.04.003-.02.003-.04 0-.06-.002-.04-.012-.07-.03-.1-.007-.012-.003-.026-.012-.037L75.383 6.3c-.003-.003-.01-.003-.012-.007v-.01c-.01-.008-.02-.005-.03-.012-.04-.03-.08-.04-.123-.05-.01 0-.016-.01-.025-.01h-1.08c-.06 0-.11.02-.152.06-.004.004-.01 0-.012.005l-5.532 4.836H65.73c-.05 0-.095.018-.134.043h-.01l-3.78 2.658c-.018.013-.018.038-.03.053-.012.012-.034.012-.043.027l-3.686 6.436c-.03.056-.042.124-.023.19l.6 2.175-.61 4.21-2.594 8.4-8.88 8.92c-.005.002-.006.01-.01.014-.003.003-.007.003-.01.006l-6.31 8.024-8.132 9.692c-.005.004-.003.012-.007.02-.005.006-.014.01-.02.02l-3.82 6.932c-.003.01 0 .02-.003.03s-.018.02-.02.03l-1.46 6.05-6.647 2.17-5.372.65c-.004 0-.007.005-.01.006-.004 0-.007-.004-.01-.003L9.1 79.04c-.016.006-.025.02-.04.027-.008 0-.018-.005-.026 0L5.86 80.8c-.1.05-.15.163-.127.27s.114.19.225.197l8.306.542h.04l9.518-.98 10.75.973.642.19.427.126c.02.006.048.01.07.01l11.584.162 10.21.132h.003c.04 0 .077-.01.11-.026l.665-.33c.063-.03.108-.088.13-.15.02-.068.013-.14-.02-.198l-1.536-2.74c-.037-.066-.102-.112-.176-.125l-2.038-.346-.6-1.507c-.03-.075-.09-.13-.164-.15l-3.384-.974 2.44-5.147 4.205-3.396 4.153-5.08 4.047 15.02 1.35 4.55c.002.006.008.01.01.016.003.006 0 .015.005.022.01.02.027.03.04.046.01.013.02.027.034.038.02.02.05.03.076.036.015.005.024.016.038.018.005 0 .01 0 .013.002l4.774.415h.04l3.155-.207c.087-.006.165-.057.205-.134.04-.076.038-.17-.007-.244l-1.538-2.53c-.027-.044-.068-.073-.114-.094-.005-.002-.007-.01-.013-.01l-2.105-.794-1.636-3.59.537-16.517zM49.91 75.94l-.138.29-2.538 5.353-3.644-4.406-.24-.29 8.78-5.626-2.22 4.68zm-34.935 2.404l4.2-.507-4.572 3.194.322-2.32.05-.36zm8.945 1.997l-2.73-2.3 9.168 2.59 1.588.448-8.026-.73zm34.62-53.61l.522-3.603 1.538 1.1 3.645 2.617-3.95-.08-1.756-.036zm3.457-12.293l.335.35 1.616 1.7 2.734 6.09-.92 2.185-.826 1.964-4.31-3.094-1.535-1.103-.56-2.04L62 14.43zM74.1 6.797l.637.61-4.06 2.385L74.1 6.8zm-3.523 48.45l-.772 2.65-7.682-4.205 10.52-5.534-1.24 4.263-.826 2.83zM27.5 75.377l1.133-.26.922-.21 3.75 5.256-5.395-4.448-.41-.338zm2.47-.75l2.045-2.823 2.98-4.114-.598 13.14-4.426-6.204zm8.56-14.553l-3.27 6.292-2.62-4.11 5.89-2.182zM59.837 40.15l-.732.016-2.81-4.2L66.43 40.01l-6.594.14zm1.354 12.78l-7.87-7.872 5.49-4.195 2.38 12.067zm-1.91-12.267l.51-.01 7.49-.16-5.584 12.38-1.746-8.83-.67-3.38zm6.03-13.533l1.555-3.69.325-.77 2.66-5.96 3.206 8.118-5.315 14.488-.286-1.444-2.144-10.74zm1.98-13.42l1.267-1.963 1.328 1.24.617.574-.755 2.09-2.017-1.59-.438-.345zm1.635-2.304l5.326-3.13-3.497 4.838-1.83-1.707zm-.422 3.9l1.058.834-1.097 2.455-1.5 3.36-1.46-3.25-1.035-2.305 2.508-2.305 1.53 1.21zM67.33 39.83l-11.225-4.478 8.78-7.772.983 4.926 1.462 7.324zm-11.6-3.806l2.902 4.338-5.247 4.015 2.328-8.3.016-.053zm-8.818 27.98l-7.5-4.467 4.817-6.843 2.68 11.31zm.404-.465l-2.693-11.35 7.854-6.46-5.16 17.802zm-8.166-3.58l6.214 3.7 1.238.732-10.858 2.12 3.41-6.558zm3.684 16.64l-6.624 4.26 11.106-15.94 5.03 5.602-9.513 6.078zm5.058-13.255L53.067 45.5l8.15 8.15-13.473 10.21.15-.512zM72.68 47.57l-10.56 5.555 1.438-3.183 4.158-9.216 1.537 2.12 3.425 4.723zm-32.15 5.095l.392-.033 2.91-.246-4.938 7.015-1.592.59-4.237 1.57 7.464-8.89zm28.96 5.626L64.27 62l-2.266-7.81 7.486 4.1zm-.506 20.77l1.02.315.335.105.45 1.13.52 1.287-3.95-.344 1.618-2.493zm1.463-.07l-1.292-.4.394-2.83 1.27 2.804-.38.425zm-1.275-4.15l-.38 2.73-4.372-15.06 5.273-3.748-.52 16.075zm2.258-20.72l1.71-5.872.58.88.726 1.094-3.018 3.9zm3.253-4.448L73.36 47.67l3.683-4.846-2.36 6.848zm2.803-8.26l-4.43 5.83-3.627-5.003-1.48-2.05 5.33-14.546 4.22 15.73-.026.032zM73.24 23.94l-3.112-7.882.747-2.073 3.506 4.247-1.14 5.708zm1.315-6.282l-3.45-4.18.01-.016 4.08-5.644 2.068 1.713-2.708 8.13zm.847-10.317l.01-.19.472.596-.482-.4zm-8.422 5.93l-.85-1.655h1.912l-1.067 1.657zm-1.35-1.535l1.012 1.98-1.875 1.726-.6.55-1.844-1.934 3.305-2.32zm-7.196 15.49l1.884.04 4.08.083-7.995 7.078-.27.238 2.298-7.437zm-5.712 17.67l-2.55 2.095-5.346 4.39.943-3.066 1.16-3.778 8.202-8.242-2.412 8.598zm-8.57 6.97l-1.866.16-1.333.112 5.122-6.514-1.922 6.248zM32.28 62.618l.543.854 2.156 3.39-5.2 7.17-1.08-4.93 3.572-6.48zm-3.848 7.557l.933 4.262-2.077.475 1.144-4.732zm-1.535 5.352L33.537 81l-1.68-.474-10.866-3.07 5.91-1.93zm-12.44 2.91l-.276 2-.1.766-.37-.164-3.747-1.657 4.5-.947zM6.852 80.83l2.306-1.25 3.728 1.644-6.034-.394zm8.37.386l4.928-3.402 3.06 2.58-7.988.822zm20.3-14.143l11.21-2.188-10.8 15.504-.752 1.08-.307-.09.65-14.31zm.412 14.568l6.994-4.48 3.828 4.64-10.822-.152zm21.886.1l-.375.19-9.76-.12 1.734-3.66 5 .857c.01.003.02.004.04.004l.01-.007 1.996.337 1.347 2.405zm-4.203-4.43l.44 1.11-4.415-.74.487-1.03.14-.3 3.34.964zM56.787 67l-4.03 3.245-5.097-5.68L59.362 55.7l1.97-1.492-.15 6.5-.023.938L56.78 67zm4.87-5.293l.084-3.57.07-2.814 6.8 23.407-.07.107-1.52 2.34-1.195-4.02-4.16-15.45zM71.865 81.92l-.96-2.372.145.01 2.123.125 1.255 2.07-2.563.17zm-.7-2.857l-.108-.005.113-.126.022-.026.5.188-.528-.03z"/></svg>