<svg xmlns="http://www.w3.org/2000/svg" viewBox="0 0 90 90"><path fill="#DCEED1" d="M70.207 58.307l.838-2.876 3.904-5.042c.006-.01.004-.022.01-.033.01-.014.02-.023.027-.04l3.03-8.8c.013-.037.002-.073-.002-.11-.002-.013.01-.023.007-.036l-4.447-16.556 1.314-6.583 2.9-8.704c.003-.013 0-.025 0-.038.003-.02.003-.038 0-.058-.002-.04-.012-.07-.03-.103-.007-.012-.003-.026-.012-.037L75.383 6.3c-.003-.003-.01-.003-.012-.007-.002-.002 0-.007-.003-.01-.008-.008-.02-.005-.028-.012-.04-.03-.08-.047-.128-.052-.01 0-.016-.01-.025-.01h-1.08c-.058 0-.11.022-.152.057-.004.003-.01 0-.012.004l-5.532 4.835h-2.687c-.05 0-.095.018-.134.043-.004.002-.008 0-.01.002L61.8 13.806c-.018.012-.018.037-.03.052-.012.013-.034.013-.043.028l-3.686 6.438c-.032.056-.043.124-.024.19l.6 2.175-.612 4.21-2.593 8.398-8.88 8.92c-.005.004-.006.01-.01.016-.003.003-.007.003-.01.006l-6.31 8.027-8.132 9.692c-.005.004-.003.012-.007.02-.006.006-.015.01-.02.02l-3.82 6.932c-.004.01 0 .022-.004.033s-.017.018-.02.03l-1.46 6.05-6.646 2.17-5.372.648c-.005 0-.008.005-.012.006-.003 0-.006-.004-.01-.003l-5.606 1.18c-.017.004-.026.02-.042.025-.008.003-.018-.003-.026 0L5.854 80.8c-.098.052-.15.164-.125.272s.115.188.226.196l8.306.542h.04l9.517-.98 10.75.978.642.19.427.126c.02.006.043.01.066.01l11.583.162 10.21.132h.002c.04 0 .077-.01.11-.026l.665-.332c.062-.03.107-.085.128-.15.02-.065.013-.136-.02-.195l-1.536-2.74c-.038-.066-.103-.112-.177-.125l-2.038-.344-.6-1.507c-.028-.074-.09-.128-.163-.15l-3.384-.973 2.44-5.147 4.206-3.395 4.155-5.08 4.046 15.02 1.35 4.55c.002.005.008.01.01.015.003.007 0 .016.005.023.01.02.027.03.04.046.01.012.02.026.034.037.022.018.05.027.078.036.014.004.023.015.037.017.004 0 .01 0 .012.002h.002l4.774.415h.038l3.156-.207c.087-.006.165-.057.205-.134.04-.077.037-.17-.008-.245l-1.538-2.53c-.026-.043-.067-.072-.113-.093-.006-.002-.008-.01-.014-.01l-2.103-.794-1.635-3.59.537-16.515zM49.91 75.94l-.138.29-2.538 5.353-3.644-4.406-.24-.29 8.78-5.626-2.22 4.68zm-34.935 2.404l4.2-.507-4.572 3.194.322-2.324.05-.36zm8.945 1.997l-2.73-2.306 9.168 2.59 1.588.448-8.026-.73zm34.62-53.617l.522-3.603 1.538 1.1 3.645 2.616-3.95-.08-1.756-.036zm3.457-12.293l.335.35 1.616 1.698 2.734 6.092-.92 2.184-.826 1.965-4.31-3.094-1.535-1.102-.56-2.04L62 14.428zM74.1 6.796l.637.61-4.06 2.385L74.1 6.798zm-3.523 48.45l-.772 2.65-7.682-4.205 10.52-5.535-1.24 4.263-.826 2.828zM27.5 75.378l1.133-.26.922-.21 3.75 5.255-5.395-4.448-.41-.338zm2.47-.75l2.045-2.824 2.98-4.114-.598 13.14-4.426-6.204zm8.56-14.554l-3.27 6.292-2.62-4.11 5.89-2.182zM59.837 40.15l-.732.016-2.81-4.2L66.43 40.01l-6.594.14zm1.354 12.78l-7.87-7.872 5.485-4.195L61.19 52.93zm-1.915-12.267l.508-.01 7.492-.16-5.586 12.38-1.747-8.83-.668-3.38zm6.032-13.532l1.554-3.69.325-.77 2.662-5.96 3.206 8.116-5.315 14.488-.288-1.444-2.144-10.74zm1.982-13.42l1.264-1.965 1.328 1.24.617.574-.755 2.09-2.017-1.593-.438-.347zm1.632-2.306l5.326-3.13-3.495 4.838-1.83-1.707zm-.422 3.9l1.055.834-1.098 2.456-1.5 3.36-1.46-3.25-1.034-2.305 2.508-2.305 1.53 1.21zM67.33 39.83l-11.225-4.478 8.78-7.772.983 4.926 1.462 7.324zm-11.6-3.806l2.902 4.338-5.247 4.015 2.328-8.3.016-.053zm-8.818 27.98l-7.5-4.467 4.817-6.843 2.68 11.31zm.404-.465l-2.693-11.35 7.854-6.454-5.16 17.802zM39.15 59.96l6.214 3.7 1.238.737-10.858 2.12 3.41-6.558zm3.684 16.643l-6.624 4.26 11.106-15.943 5.03 5.605-9.513 6.078zm5.058-13.252l5.175-17.845 8.15 8.15-13.473 10.206.15-.512zm24.788-15.78l-10.56 5.554 1.438-3.183 4.158-9.216 1.537 2.12 3.425 4.723zm-32.15 5.094l.392-.033 2.91-.246-4.938 7.015-1.592.59-4.237 1.57 7.464-8.897zm28.96 5.626l-5.22 3.71-2.266-7.81 7.486 4.1zm-.506 20.763l1.02.316.335.104.457 1.13.52 1.288-3.95-.344 1.617-2.493zm1.463-.07l-1.292-.4.394-2.83 1.277 2.805-.38.425zm-1.275-4.15l-.38 2.73L64.42 62.51l5.273-3.748-.52 16.075zM71.43 54.12l1.71-5.872.58.88.726 1.094-3.018 3.9zm3.253-4.448L73.36 47.67l3.683-4.846-2.36 6.848zm2.803-8.26l-4.43 5.83-3.627-5.003-1.48-2.045 5.33-14.545 4.227 15.73-.027.033zM73.24 23.94l-3.112-7.882.747-2.073 3.506 4.247-1.14 5.708zm1.315-6.282l-3.45-4.18.01-.016 4.08-5.644 2.068 1.713-2.708 8.13zm.847-10.317l.01-.197.472.597-.482-.4zm-8.423 5.925l-.85-1.657h1.915l-1.067 1.657zm-1.35-1.537l1.015 1.982-1.875 1.724-.6.55-1.843-1.934 3.305-2.323zM58.436 27.22l1.884.04 4.08.082-7.994 7.078-.27.237 2.298-7.437zm-5.712 17.67l-2.55 2.094-5.346 4.39.943-3.065 1.162-3.776 8.203-8.242-2.412 8.597zm-8.57 6.97l-1.866.158-1.333.113 5.122-6.516-1.922 6.247zM32.28 62.617l.543.854 2.156 3.387-5.194 7.17-1.08-4.928 3.572-6.48zm-3.848 7.557l.933 4.262-2.077.475 1.144-4.735zm-1.535 5.352L33.537 81l-1.68-.474-10.866-3.07 5.908-1.93zm-12.44 2.91l-.276 2-.104.766-.372-.164-3.747-1.654 4.5-.947zM6.852 80.83l2.306-1.25 3.728 1.644-6.034-.394zm8.37.386l4.928-3.402 3.06 2.58-7.988.822zm20.3-14.143l11.21-2.188-10.8 15.504-.752 1.08-.307-.09.65-14.308zm.412 14.568l6.994-4.48 3.828 4.634-10.822-.152zm21.886.1l-.375.19-9.76-.124 1.734-3.66 5 .855c.012.003.026.004.04.004.006 0 .01-.007.015-.007l1.997.337 1.347 2.407zm-4.203-4.43l.44 1.11-4.415-.746.487-1.028.14-.3 3.346.963zm3.17-10.317l-4.03 3.245-5.097-5.68 11.702-8.865 1.97-1.492-.15 6.5-.023.938-4.375 5.355zm4.87-5.293l.084-3.57.067-2.815 6.797 23.407-.07.107-1.52 2.34-1.195-4.02-4.16-15.45zm10.208 20.217l-.96-2.372.145.01 2.123.125 1.255 2.068-2.563.17zm-.7-2.857l-.108-.006.113-.126.022-.025.5.188-.528-.03z"/></svg>